<?xml version="1.0" standalone="no"?>
<!DOCTYPE svg PUBLIC "-//W3C//DTD SVG 20010904//EN"
 "http://www.w3.org/TR/2001/REC-SVG-20010904/DTD/svg10.dtd">
<svg version="1.0" xmlns="http://www.w3.org/2000/svg"
 width="3328.000000pt" height="3328.000000pt" viewBox="0 0 3328.000000 3328.000000"
 preserveAspectRatio="xMidYMid meet">
<metadata>
Created by potrace 1.14, written by Peter Selinger 2001-2017
</metadata>
<g transform="translate(0.000000,3328.000000) scale(0.100000,-0.100000)"
fill="#000000" stroke="none">
<path d="M12088 21086 c-1 -2 -26 -6 -54 -9 -28 -3 -83 -16 -123 -30 -282 -98
-477 -374 -473 -667 1 -91 6 -124 28 -212 3 -13 6 -27 7 -33 7 -26 59 -129 86
-167 44 -63 139 -158 197 -196 23 -15 145 -76 159 -79 6 -1 21 -5 35 -8 30 -8
66 -15 100 -20 14 -1 25 -4 25 -4 0 -1 33 -3 73 -4 39 -1 72 0 72 3 0 3 15 6
33 8 32 2 72 9 72 12 0 1 11 4 25 6 33 6 140 57 140 66 0 5 5 8 11 8 25 0 123
87 193 173 186 227 198 600 27 842 -67 96 -236 245 -276 245 -6 0 -16 5 -23
12 -6 6 -18 13 -26 14 -7 1 -39 9 -71 18 -49 15 -226 31 -237 22z"/>
<path d="M18643 20832 c-3 -7 -3 -16 0 -19 4 -3 2 -14 -3 -24 -6 -11 -6 -20
-1 -24 5 -3 6 -17 2 -33 -4 -15 -4 -39 0 -54 4 -16 3 -30 -2 -34 -6 -3 -6 -12
0 -21 5 -9 5 -28 1 -43 -4 -15 -4 -33 0 -39 4 -7 4 -30 0 -52 -4 -22 -4 -42 1
-44 4 -3 4 -18 0 -33 -4 -15 -4 -39 0 -54 4 -16 3 -30 -2 -34 -6 -3 -6 -12 0
-21 5 -9 5 -28 1 -43 -4 -15 -4 -33 0 -39 4 -7 4 -30 0 -52 -4 -22 -4 -42 1
-44 4 -3 4 -18 0 -33 -4 -15 -4 -39 0 -54 4 -16 3 -30 -2 -34 -6 -3 -6 -12 0
-21 5 -9 5 -29 1 -44 -5 -15 -6 -30 -3 -33 8 -7 9 -126 2 -126 -3 0 -4 -12 -2
-27 2 -16 3 -55 3 -88 -1 -33 -1 -69 0 -80 4 -111 4 -135 -3 -135 -4 0 -4 -8
0 -17 5 -10 7 -34 6 -53 -3 -63 -5 -135 -3 -145 2 -9 2 -33 0 -110 0 -16 1
-58 2 -93 2 -34 -1 -62 -5 -62 -4 0 -4 -8 0 -17 5 -10 7 -34 6 -53 -3 -64 -5
-135 -3 -145 4 -19 1 -105 -3 -113 -3 -4 -1 -16 3 -27 4 -11 4 -34 -1 -52 -4
-18 -3 -35 1 -38 5 -3 5 -18 1 -33 -4 -15 -4 -39 0 -54 4 -16 3 -30 -2 -34 -6
-3 -6 -12 0 -21 5 -9 5 -28 1 -43 -4 -15 -4 -33 0 -39 4 -7 4 -30 0 -52 -4
-22 -4 -42 1 -44 4 -3 4 -18 0 -33 -4 -15 -4 -39 0 -54 4 -16 3 -30 -2 -34 -6
-3 -6 -12 0 -21 5 -9 5 -28 1 -43 -4 -15 -4 -33 0 -39 4 -7 4 -30 0 -52 -4
-22 -4 -42 1 -44 4 -3 4 -18 0 -33 -4 -15 -4 -39 0 -54 4 -16 3 -30 -2 -34 -6
-3 -6 -12 0 -21 5 -9 5 -28 1 -43 -4 -15 -4 -33 0 -39 4 -7 4 -30 0 -52 -4
-22 -4 -42 1 -44 4 -3 4 -18 0 -33 -4 -15 -4 -39 0 -54 4 -16 3 -30 -2 -34 -6
-3 -6 -12 0 -21 5 -9 5 -29 1 -44 -5 -15 -6 -30 -3 -33 8 -7 9 -126 2 -126 -3
0 -4 -12 -2 -27 2 -16 3 -55 3 -88 -1 -33 -1 -69 0 -80 4 -111 4 -135 -3 -135
-4 0 -4 -8 0 -17 5 -10 7 -34 6 -53 -3 -63 -5 -135 -3 -145 2 -9 2 -33 0 -110
0 -16 1 -58 2 -93 2 -34 -1 -62 -5 -62 -4 0 -4 -8 0 -17 5 -10 7 -34 6 -53 -3
-64 -5 -135 -3 -145 4 -19 1 -105 -3 -113 -3 -4 -1 -16 3 -27 4 -11 4 -34 -1
-52 -4 -18 -3 -35 1 -38 5 -3 5 -18 1 -33 -4 -15 -4 -39 0 -54 4 -16 3 -30 -2
-34 -6 -3 -6 -12 0 -21 5 -9 5 -28 1 -43 -4 -15 -4 -33 0 -39 4 -7 4 -30 0
-52 -4 -22 -4 -42 1 -44 4 -3 4 -18 0 -33 -4 -15 -4 -39 0 -54 4 -16 3 -30 -2
-34 -6 -3 -6 -12 0 -21 5 -9 5 -28 1 -43 -4 -15 -4 -33 0 -39 4 -7 4 -30 0
-52 -4 -22 -4 -42 1 -44 4 -3 4 -18 0 -33 -4 -15 -4 -39 0 -54 4 -16 3 -30 -2
-34 -6 -3 -6 -12 0 -21 5 -9 5 -28 1 -43 -4 -15 -4 -33 0 -39 4 -7 4 -30 0
-52 -4 -22 -4 -42 1 -44 4 -3 4 -18 0 -33 -4 -15 -4 -39 0 -54 4 -16 3 -30 -2
-34 -6 -3 -6 -12 0 -21 5 -9 5 -29 1 -44 -5 -15 -6 -30 -3 -33 8 -7 9 -126 2
-126 -3 0 -4 -12 -2 -27 2 -16 3 -55 3 -88 -1 -33 -1 -69 0 -80 4 -111 4 -135
-3 -135 -4 0 -4 -8 0 -17 5 -10 7 -34 6 -53 -3 -63 -5 -135 -3 -145 2 -9 2
-33 0 -110 0 -16 1 -58 2 -93 2 -34 -1 -62 -5 -62 -4 0 -4 -8 0 -17 5 -10 7
-34 6 -53 -3 -64 -5 -135 -3 -145 4 -19 1 -105 -3 -113 -3 -4 -1 -16 3 -27 4
-11 4 -34 -1 -52 -4 -18 -3 -35 1 -38 5 -3 5 -18 1 -33 -4 -15 -4 -39 0 -54 4
-16 3 -30 -2 -34 -6 -3 -6 -12 0 -21 5 -9 5 -28 1 -43 -4 -15 -4 -33 0 -39 4
-7 4 -30 0 -52 -4 -22 -4 -42 1 -44 4 -3 4 -18 0 -33 -4 -15 -4 -39 0 -54 4
-16 3 -30 -2 -34 -6 -3 -6 -12 0 -21 5 -9 5 -29 1 -44 -5 -15 -6 -30 -3 -33 8
-7 9 -126 2 -126 -3 0 -4 -12 -2 -27 2 -16 3 -55 3 -88 -1 -33 -1 -69 0 -80 4
-111 4 -135 -3 -135 -5 0 -5 -5 -1 -12 4 -7 7 -30 6 -53 -1 -22 1 -35 5 -29 8
11 39 11 50 0 3 -2 16 -1 29 4 15 6 24 6 24 0 0 -6 9 -6 25 0 15 6 26 6 30 0
4 -7 13 -7 24 0 10 5 21 7 25 3 8 -8 122 -6 136 2 5 3 10 3 10 -2 0 -9 67 -9
76 0 4 4 15 2 25 -3 12 -7 20 -7 24 0 4 6 13 7 22 2 8 -5 33 -6 54 -2 22 4 42
4 45 -1 2 -4 16 -4 29 1 15 6 27 6 30 -1 4 -5 11 -7 16 -3 13 8 79 11 79 4 0
-7 69 -4 76 3 4 4 14 2 23 -2 9 -5 18 -10 21 -12 3 -1 14 3 26 9 12 6 26 7 34
2 8 -5 21 -5 31 1 11 6 20 5 24 0 3 -6 18 -6 37 1 18 6 28 13 23 15 -11 3 -11
536 0 553 3 5 3 10 -2 10 -10 0 -8 93 1 109 4 6 4 11 -1 11 -9 0 -7 335 2 350
3 6 3 10 -2 10 -10 0 -8 93 1 109 4 6 4 11 -1 11 -9 0 -7 335 2 350 3 6 3 10
-2 10 -10 0 -8 93 1 109 4 6 4 11 -1 11 -9 0 -8 174 2 190 3 5 3 10 -2 10 -10
0 -8 93 1 109 4 6 4 11 -1 11 -9 0 -7 335 2 350 3 6 3 10 -2 10 -10 0 -8 93 1
109 4 6 4 11 -1 11 -9 0 -7 335 2 350 3 6 3 10 -2 10 -10 0 -8 93 1 109 4 6 4
11 -1 11 -9 0 -8 174 2 190 3 5 3 10 -2 10 -10 0 -8 93 1 109 4 6 4 11 -1 11
-9 0 -7 335 2 350 3 6 3 10 -2 10 -10 0 -8 93 1 109 4 6 4 11 -1 11 -9 0 -7
335 2 350 3 6 3 10 -2 10 -10 0 -8 93 1 109 4 6 4 11 -1 11 -9 0 -8 174 2 190
3 5 3 10 -2 10 -10 0 -8 93 1 109 4 6 4 11 -1 11 -9 0 -7 335 2 350 3 6 3 10
-2 10 -10 0 -8 93 1 109 4 6 4 11 -1 11 -9 0 -7 335 2 350 3 6 3 10 -2 10 -10
0 -8 93 1 109 4 6 4 11 -1 11 -9 0 -8 174 2 190 3 5 3 10 -2 10 -10 0 -8 93 1
109 4 6 4 11 -1 11 -9 0 -7 335 2 350 3 6 3 10 -2 10 -10 0 -8 93 1 109 4 6 4
11 -1 11 -9 0 -7 335 2 350 3 6 3 10 -2 10 -10 0 -8 93 1 109 4 6 4 11 -1 11
-9 0 -8 174 2 190 3 5 3 10 -2 10 -10 0 -8 93 1 109 4 6 4 11 -1 11 -9 0 -7
335 2 350 3 6 3 10 -2 10 -10 0 -8 93 1 109 4 6 4 11 -1 11 -9 0 -7 335 2 350
3 6 3 10 -2 10 -10 0 -8 93 1 109 4 6 4 11 -1 11 -9 0 -8 174 2 190 3 5 3 10
-2 10 -10 0 -8 93 1 109 4 6 4 11 -1 11 -4 0 -8 33 -8 72 l0 73 -519 0 c-416
0 -519 -2 -523 -13z"/>
<path d="M249 20338 c0 -7 -2 -1812 -2 -4010 -2 -3545 0 -3998 13 -4004 21 -9
100 -10 100 -2 0 4 13 3 30 -2 17 -5 30 -5 30 0 0 5 7 7 15 4 23 -9 105 -10
105 -1 0 5 4 5 10 2 14 -8 118 -10 126 -2 4 3 15 2 25 -3 12 -7 20 -7 24 0 4
6 11 8 16 5 13 -9 99 -11 99 -3 0 4 14 3 30 -2 17 -5 30 -5 30 0 0 5 10 6 22
1 13 -4 35 -5 50 0 15 4 30 4 33 -1 3 -5 16 -5 30 0 15 6 27 6 30 -1 4 -5 11
-7 16 -3 13 8 79 11 79 4 0 -4 68 -4 80 0 3 2 10 1 15 0 21 -5 125 -1 135 5 5
3 10 3 10 -2 0 -9 67 -9 76 0 4 4 15 2 25 -3 12 -7 20 -7 24 0 4 6 11 7 17 4
13 -8 154 -7 168 1 5 3 10 3 10 -2 0 -9 67 -9 76 0 4 4 15 2 25 -3 12 -7 20
-7 24 0 4 6 13 7 22 2 8 -5 33 -6 54 -2 22 4 42 4 45 -1 2 -4 16 -4 29 1 15 6
27 6 30 -1 4 -6 13 -6 23 0 9 5 26 5 39 0 14 -5 23 -5 23 1 0 6 9 6 23 1 13
-5 30 -5 37 -1 8 5 18 6 23 3 13 -8 87 -9 87 -1 0 4 14 3 30 -2 17 -5 30 -5
30 0 0 5 7 7 15 4 23 -9 105 -10 105 -1 0 5 4 5 10 2 14 -8 118 -10 126 -2 4
3 15 2 25 -3 12 -7 20 -7 24 0 4 6 11 8 16 5 13 -9 99 -11 99 -3 0 4 14 3 30
-2 17 -5 30 -5 30 0 0 5 10 6 22 1 13 -4 35 -5 50 0 15 4 30 4 33 -1 3 -5 16
-5 30 0 15 6 27 6 30 -1 4 -5 11 -7 16 -3 13 8 79 11 79 4 0 -7 69 -4 76 3 4
4 14 2 23 -3 10 -5 23 -5 31 0 7 4 23 5 35 0 12 -5 28 -4 35 0 8 5 22 4 32 -1
10 -5 18 -6 18 -2 0 12 84 10 92 -2 5 -7 8 -6 8 0 0 6 17 11 38 12 50 1 187
11 187 13 0 1 18 3 40 4 72 6 211 27 285 43 14 3 36 6 50 8 14 1 32 5 40 8 8
4 53 16 100 27 99 24 321 98 335 111 5 5 15 9 22 9 24 0 312 147 344 176 8 8
19 14 23 14 14 0 168 111 251 180 72 61 214 198 240 232 6 7 25 31 43 53 36
45 34 41 83 110 19 28 38 58 42 68 3 9 11 17 17 17 6 0 9 4 6 8 -3 5 4 21 15
38 43 64 188 394 174 394 -2 0 2 18 10 40 8 22 14 42 15 45 0 3 0 6 1 8 3 9 9
36 14 62 3 17 8 37 10 45 8 26 18 94 19 123 1 15 3 27 6 27 7 0 13 126 13 285
0 164 -8 267 -29 365 -3 14 -7 39 -10 55 -4 24 -38 145 -58 210 -22 73 -75
192 -135 311 -73 141 -138 243 -230 359 -79 100 -298 315 -321 315 -4 0 -10 4
-12 8 -4 9 -148 117 -157 117 -3 0 -19 10 -36 21 -35 25 -92 55 -101 53 -4 0
-10 3 -13 8 -6 8 -60 36 -73 37 -3 1 -10 4 -14 9 -4 4 -16 7 -26 7 -10 0 -18
4 -18 8 0 5 -6 9 -12 9 -12 1 -56 16 -103 34 -11 4 -51 15 -90 25 -89 21 -96
22 -120 24 -19 1 -19 1 -2 11 11 6 24 12 30 14 7 1 21 6 32 10 11 5 40 16 65
26 25 9 75 31 110 48 36 16 67 30 70 29 3 -1 24 11 47 25 24 15 45 27 49 27 3
0 19 9 35 21 16 11 29 17 29 12 0 -4 4 -3 8 3 4 6 43 34 87 64 154 102 311
244 426 386 56 68 163 223 164 236 0 3 4 10 8 15 7 6 34 61 42 83 1 3 16 37
34 75 18 39 34 79 36 90 1 11 9 37 18 58 9 20 14 37 12 37 -3 0 0 12 6 27 23
60 51 222 65 368 5 58 5 312 0 370 -8 89 -16 149 -21 175 -3 14 -8 41 -11 60
-7 37 -26 113 -42 167 -6 17 -8 34 -4 37 3 3 0 6 -6 6 -7 0 -12 9 -12 20 0 11
-4 28 -9 38 -5 9 -20 44 -32 77 -40 104 -162 329 -199 365 -3 3 -25 31 -49 63
-98 133 -285 302 -447 406 -43 28 -83 54 -89 59 -5 4 -44 25 -85 46 -41 20
-82 41 -90 46 -22 13 -149 70 -195 87 -22 8 -49 18 -60 23 -46 19 -91 35 -100
36 -5 1 -35 9 -65 18 -30 9 -59 17 -65 18 -5 0 -24 7 -41 14 -17 7 -34 11 -37
8 -3 -3 -12 -2 -19 2 -7 5 -17 9 -23 10 -56 9 -118 21 -162 30 -16 3 -41 7
-58 9 -16 2 -48 7 -70 10 -176 27 -260 28 -1847 32 -1281 3 -1578 1 -1579 -9z
m3016 -862 c50 -3 106 -8 125 -11 80 -12 96 -15 120 -20 14 -3 39 -8 55 -11
157 -28 383 -119 522 -210 119 -79 240 -199 310 -309 18 -27 36 -54 41 -60 26
-32 105 -228 116 -286 2 -13 5 -25 7 -26 6 -8 29 -153 31 -203 2 -25 8 -48 13
-52 7 -5 7 -8 0 -8 -8 0 -12 -49 -5 -70 5 -16 1 -90 -5 -101 -6 -8 -4 -10 5
-4 9 5 11 4 6 -4 -4 -6 -10 -38 -12 -69 -3 -31 -7 -68 -10 -82 -2 -14 -7 -41
-10 -60 -9 -57 -33 -140 -66 -225 -32 -83 -86 -188 -100 -193 -4 -2 -8 -8 -8
-14 0 -36 -197 -235 -304 -307 -65 -44 -224 -131 -240 -131 -3 0 -17 -5 -33
-11 -15 -6 -28 -9 -29 -7 0 2 -7 -2 -15 -8 -12 -10 -48 -22 -76 -25 -5 -1 -18
-5 -31 -10 -12 -5 -33 -11 -45 -14 -12 -2 -40 -9 -62 -14 -22 -5 -62 -12 -88
-15 -27 -3 -52 -8 -55 -10 -17 -10 -394 -29 -512 -26 -116 3 -148 2 -158 -4
-6 -3 -13 -2 -17 4 -3 5 -11 10 -16 10 -6 0 -7 -5 -3 -11 4 -8 1 -8 -12 -2
-21 10 -172 10 -197 0 -9 -3 -18 -3 -21 1 -5 9 -199 7 -214 -2 -6 -3 -13 -2
-17 4 -3 5 -11 10 -16 10 -6 0 -7 -5 -3 -12 5 -7 3 -8 -6 -3 -18 11 -190 12
-190 2 0 -5 -5 -5 -12 -1 -16 10 -208 11 -208 1 0 -5 -5 -5 -12 -1 -16 10
-148 11 -148 1 0 -5 -5 -5 -12 -1 -17 11 -88 11 -88 1 0 -5 -5 -5 -12 -1 -16
10 -164 12 -199 3 -57 -15 -53 -95 -54 1293 -1 706 1 1290 3 1298 3 14 106 15
940 14 515 -1 978 -4 1027 -8z m-1605 -3461 c58 1 111 4 118 9 6 4 12 4 12 -1
0 -10 211 -10 228 1 7 4 12 4 12 -1 0 -10 211 -10 228 1 7 4 12 4 12 -1 0 -10
211 -10 228 1 7 4 12 4 12 -1 0 -10 211 -10 228 1 7 4 12 4 12 -1 0 -10 211
-10 228 1 7 4 12 4 12 -1 0 -4 66 -8 148 -9 261 -1 412 -21 612 -78 30 -9 58
-15 61 -14 3 2 13 -3 22 -11 10 -7 17 -11 17 -7 0 3 24 -5 53 -17 28 -13 54
-24 57 -25 12 -1 136 -61 143 -69 5 -4 12 -8 15 -8 6 0 99 -61 170 -110 73
-51 210 -188 275 -277 82 -111 178 -317 201 -428 20 -101 29 -150 33 -180 6
-53 11 -374 5 -384 -3 -5 -7 -26 -8 -45 -4 -43 -12 -104 -15 -111 -1 -3 -3 -9
-4 -15 -5 -24 -18 -74 -33 -120 -8 -27 -14 -51 -13 -53 1 -1 -6 -16 -14 -32
-9 -17 -13 -30 -10 -30 4 0 -1 -7 -9 -16 -9 -8 -16 -24 -16 -35 0 -10 -4 -19
-9 -19 -5 0 -13 -10 -16 -22 -6 -19 -52 -98 -77 -133 -58 -80 -179 -205 -242
-250 -16 -11 -33 -25 -40 -31 -35 -33 -204 -124 -321 -173 -50 -22 -158 -55
-215 -66 -8 -2 -15 -4 -15 -5 0 -2 -23 -8 -60 -15 -16 -3 -54 -10 -82 -16 -29
-6 -57 -8 -63 -4 -5 3 -10 2 -10 -3 0 -5 -15 -10 -32 -10 -18 0 -80 -4 -138
-8 -58 -4 -546 -8 -1085 -8 l-979 -1 -1 1416 0 1417 118 -2 c65 -1 121 2 124
7 3 5 8 5 12 0 3 -4 53 -8 111 -8z"/>
<path d="M14693 20220 c-18 -5 -19 -36 -19 -795 l0 -790 -403 -1 c-280 0 -404
-3 -409 -11 -9 -14 -8 -841 1 -849 3 -3 187 -6 409 -6 l403 0 -1 -1911 c0
-1056 3 -1920 8 -1929 5 -10 5 -18 0 -18 -4 0 -7 -12 -6 -27 2 -16 5 -59 9
-98 6 -76 10 -107 25 -205 13 -87 26 -160 31 -170 1 -3 3 -10 3 -15 3 -28 59
-196 84 -253 8 -20 15 -40 14 -44 -1 -5 3 -8 9 -8 5 0 8 -3 6 -7 -2 -5 4 -21
14 -38 11 -16 26 -44 33 -61 8 -17 22 -36 30 -44 9 -7 16 -18 16 -24 0 -6 17
-31 37 -56 45 -55 203 -210 214 -210 4 0 14 -6 21 -13 16 -17 124 -85 152 -98
12 -5 28 -13 36 -18 21 -13 94 -44 175 -74 181 -67 453 -116 667 -121 27 -1
48 -5 48 -10 0 -5 6 -4 13 2 6 5 21 6 32 2 11 -4 32 -4 48 1 16 5 27 4 27 -2
0 -6 4 -7 10 -4 13 8 90 12 90 5 0 -4 68 -4 80 0 3 2 10 1 15 0 21 -5 125 -1
135 5 5 3 10 3 10 -2 0 -9 67 -9 76 0 4 4 15 2 25 -3 12 -7 20 -7 24 0 4 6 11
7 17 4 13 -8 154 -7 168 1 5 3 10 3 10 -2 0 -9 67 -9 76 0 4 4 15 2 25 -3 12
-7 20 -7 24 0 4 6 13 7 22 2 8 -5 33 -6 54 -2 22 4 42 4 44 0 3 -5 14 -6 25
-3 18 5 20 14 20 77 1 110 1 547 0 687 l0 126 -437 0 c-495 1 -555 4 -713 37
-113 24 -242 91 -312 161 -45 46 -117 175 -133 240 -5 17 -9 35 -11 40 -3 10
-7 30 -19 93 -17 84 -19 321 -20 2072 l0 1915 819 2 c450 1 820 4 822 6 7 6 6
848 0 855 -4 3 -374 6 -824 6 l-817 1 0 787 c-1 433 -4 790 -8 794 -8 8 -996
12 -1024 4z"/>
<path d="M10196 18743 c-1 -1 -40 -5 -86 -9 -115 -9 -145 -12 -145 -14 0 -1
-16 -3 -35 -6 -19 -2 -69 -11 -110 -20 -41 -8 -84 -17 -95 -20 -11 -2 -33 -7
-50 -11 -16 -4 -32 -7 -35 -8 -3 0 -10 -4 -17 -8 -6 -4 -23 -8 -37 -9 -14 -1
-26 -5 -26 -9 0 -3 -6 -6 -12 -7 -27 -1 -61 -12 -72 -21 -7 -6 -21 -12 -32
-14 -71 -15 -355 -160 -420 -215 -5 -5 -20 -14 -31 -21 -12 -6 -27 -17 -35
-23 -7 -7 -36 -31 -63 -52 -87 -69 -275 -263 -325 -336 -13 -19 -27 -37 -30
-40 -9 -8 -75 -103 -83 -120 -4 -8 -13 -24 -20 -35 -7 -11 -25 -44 -41 -72
-33 -59 -49 -69 -36 -22 6 20 6 39 -1 50 -7 14 -6 19 3 19 9 0 9 3 1 11 -8 8
-8 20 -2 36 6 17 6 22 -2 17 -8 -4 -8 -1 -1 13 6 11 7 25 2 33 -4 7 -5 23 -1
34 8 25 7 69 -3 85 -4 6 -2 11 4 11 7 0 8 6 1 18 -7 13 -6 23 1 30 9 9 9 12 0
12 -7 0 -9 8 -4 23 7 20 8 43 2 57 -6 17 -7 40 -2 40 4 0 7 14 7 30 0 17 -3
30 -6 30 -4 0 -3 19 1 42 5 24 4 50 -1 60 -6 10 -5 19 1 23 6 4 7 12 3 18 -10
16 -13 37 -5 37 4 0 7 14 7 30 0 17 -3 30 -6 30 -4 0 -3 19 1 42 5 24 4 50 -1
60 -7 12 -6 18 1 18 6 0 8 5 4 12 -5 7 -8 24 -8 37 l-1 25 -505 1 c-278 0
-512 -1 -521 -3 -16 -4 -17 -239 -17 -3153 l0 -3148 22 -7 c25 -9 122 -8 136
1 6 3 10 3 10 -2 0 -9 67 -9 76 0 4 4 15 2 25 -3 12 -7 20 -7 24 0 4 6 13 7
22 2 8 -5 33 -6 54 -2 22 4 42 4 45 -1 2 -4 16 -4 29 1 15 6 27 6 30 -1 4 -6
13 -6 23 0 9 5 26 5 39 0 14 -5 23 -5 23 1 0 6 9 6 23 1 13 -5 30 -5 37 -1 8
5 18 6 23 3 13 -8 87 -9 87 -1 0 4 14 3 30 -2 17 -5 30 -5 30 0 0 5 7 7 15 4
23 -9 105 -10 105 -1 0 5 5 5 11 1 11 -7 119 -7 126 0 8 8 8 128 0 133 -4 2
-4 10 1 16 5 7 6 21 2 31 -3 11 -3 38 1 60 4 24 3 46 -2 53 -7 7 -6 13 0 17 6
4 7 16 2 28 -4 12 -4 40 0 62 4 23 4 45 -1 50 -4 4 -4 22 1 38 5 19 4 38 -1
49 -7 12 -7 20 0 24 6 4 7 12 3 18 -10 16 -13 37 -5 37 4 0 7 14 7 30 0 17 -3
30 -6 30 -4 0 -3 19 1 42 5 24 4 50 -1 60 -6 10 -5 19 1 23 6 4 7 12 3 18 -10
16 -13 37 -5 37 4 0 7 14 7 30 0 17 -3 30 -6 30 -4 0 -3 19 1 42 5 24 4 50 -1
60 -7 13 -6 18 3 18 9 0 9 3 1 11 -7 7 -8 21 -3 40 5 18 5 27 -1 24 -5 -4 -5
5 1 20 7 18 7 33 0 45 -7 13 -7 21 0 25 6 4 7 12 3 18 -10 16 -13 37 -5 37 4
0 7 14 7 30 0 17 -3 30 -6 30 -4 0 -3 19 1 42 5 24 4 50 -1 60 -7 12 -6 18 1
18 6 0 8 5 4 12 -7 10 -9 63 -4 71 6 9 4 60 -3 64 -5 3 -3 9 4 14 9 6 10 9 2
9 -8 0 -9 9 -3 30 5 17 5 32 0 35 -5 3 -6 16 -2 28 4 12 6 36 5 52 -5 50 -3
106 3 116 3 6 1 16 -6 24 -7 8 -7 15 -1 19 6 4 7 16 2 28 -4 12 -4 40 0 62 4
24 3 46 -2 53 -7 7 -6 13 0 17 6 4 7 16 2 28 -4 12 -4 40 0 62 4 24 3 46 -2
53 -7 7 -6 13 0 17 6 4 7 16 2 28 -4 12 -4 40 0 62 4 23 4 45 -1 50 -4 4 -4
21 0 37 5 16 5 29 1 29 -5 0 -5 19 -1 42 5 24 4 50 -1 60 -6 10 -5 19 1 23 6
4 7 12 3 18 -10 16 -13 37 -5 37 4 0 7 14 7 30 0 17 -3 30 -6 30 -4 0 -3 19 1
42 5 24 4 50 -1 60 -6 10 -5 19 1 23 6 4 7 12 3 18 -10 16 -13 37 -5 37 4 0 7
14 7 30 0 17 -3 30 -6 30 -4 0 -3 19 1 42 5 24 4 50 -1 60 -6 10 -5 19 1 23 6
4 7 12 3 18 -10 16 -13 37 -5 37 4 0 7 14 7 30 0 17 -3 30 -6 30 -4 0 -3 19 1
42 5 24 4 50 -1 60 -6 10 -5 19 1 23 6 4 7 12 3 18 -10 17 -13 37 -4 37 7 0 5
75 -3 97 -3 6 -2 14 1 17 3 3 7 63 9 133 2 70 6 148 8 173 3 25 8 70 12 100 3
30 8 64 10 75 2 10 6 37 9 60 4 22 15 76 26 120 11 44 22 90 25 102 5 26 56
175 74 218 8 17 14 32 15 35 11 31 64 129 100 185 24 39 48 77 52 85 19 40
200 228 263 272 25 18 47 36 48 40 2 4 8 8 12 8 5 0 26 12 47 26 41 28 214
116 254 128 13 5 29 10 34 12 86 32 286 82 358 89 18 2 32 4 32 5 0 2 14 4 30
5 17 2 66 6 110 10 44 4 177 8 295 9 133 1 215 5 215 11 0 6 4 15 8 22 4 6 3
14 -2 17 -4 3 -5 24 -1 46 4 22 4 43 -1 46 -4 2 -4 15 0 27 5 12 5 32 0 44 -5
13 -4 25 1 28 6 3 6 15 0 30 -6 16 -6 25 1 25 6 0 6 6 0 18 -6 10 -6 24 -1 32
5 8 6 18 3 23 -9 15 -10 57 -1 57 5 0 4 9 -2 19 -7 14 -7 22 0 26 8 5 8 11 1
19 -6 7 -8 15 -5 19 8 8 9 105 1 113 -3 4 -2 15 4 25 7 13 6 19 -1 19 -6 0 -8
5 -4 11 8 14 9 113 0 127 -3 6 -2 13 3 17 6 3 7 15 2 28 -8 22 -6 75 3 84 3 3
1 15 -4 28 -5 14 -5 26 2 33 6 6 6 12 -1 16 -7 5 -8 13 -2 25 20 36 -2 46
-104 46 -53 0 -98 -1 -99 -2z"/>
<path d="M24037 18733 c-1 -1 -45 -4 -97 -7 -52 -2 -95 -5 -95 -6 0 -1 -105
-11 -147 -13 -10 -1 -18 -5 -18 -10 0 -4 -5 -5 -10 -2 -9 6 -107 -9 -230 -36
-25 -5 -55 -11 -68 -14 -13 -2 -32 -7 -42 -10 -10 -3 -27 -8 -37 -10 -29 -6
-182 -53 -248 -76 -52 -19 -94 -35 -205 -82 -14 -6 -27 -11 -30 -11 -14 -3
-258 -130 -281 -147 -15 -10 -29 -19 -32 -19 -7 0 -184 -117 -219 -144 -14
-12 -41 -32 -59 -46 -130 -98 -318 -282 -424 -415 -16 -21 -37 -46 -46 -55
-15 -16 -91 -121 -114 -159 -6 -9 -23 -35 -38 -58 -15 -24 -27 -47 -27 -52 0
-5 -4 -11 -9 -13 -14 -5 -127 -219 -172 -325 -8 -18 -17 -33 -20 -33 -3 0 -6
-6 -6 -12 0 -7 -7 -29 -15 -48 -23 -52 -53 -134 -84 -230 -15 -47 -29 -92 -32
-100 -3 -8 -6 -19 -7 -25 -2 -5 -14 -57 -29 -115 -14 -58 -27 -116 -30 -130
-2 -14 -7 -32 -10 -40 -4 -14 -9 -46 -21 -135 -3 -16 -7 -46 -10 -65 -3 -19
-8 -60 -11 -90 -3 -30 -7 -66 -10 -80 -22 -133 -22 -688 0 -860 3 -19 7 -57
10 -85 3 -27 8 -61 10 -75 3 -14 7 -43 10 -65 3 -22 10 -65 16 -95 5 -30 12
-67 14 -81 3 -14 14 -63 26 -110 12 -46 23 -91 25 -99 1 -8 9 -35 16 -60 7
-25 13 -49 15 -55 4 -16 61 -176 83 -235 24 -62 22 -57 87 -195 26 -55 47
-103 46 -107 -1 -3 5 -12 13 -18 8 -7 15 -16 15 -21 0 -5 12 -28 27 -52 15
-23 27 -44 28 -47 0 -3 10 -19 23 -37 12 -17 22 -34 22 -37 0 -4 44 -70 98
-146 140 -197 346 -418 507 -544 28 -22 55 -44 60 -50 14 -15 59 -46 195 -137
126 -83 121 -80 277 -158 59 -29 116 -57 127 -63 24 -12 201 -80 231 -88 6 -2
38 -13 72 -26 34 -13 72 -25 85 -28 13 -2 68 -16 123 -30 55 -14 111 -27 125
-30 14 -2 36 -7 50 -10 14 -3 39 -7 55 -10 17 -2 46 -7 65 -10 19 -4 55 -9 80
-11 25 -2 45 -4 45 -5 0 -2 18 -4 185 -15 169 -12 457 -8 630 9 75 8 156 17
180 22 14 2 43 7 65 10 33 5 158 30 249 50 24 6 25 6 86 23 25 7 52 14 60 16
8 2 52 17 98 34 45 17 84 31 87 31 3 0 21 7 41 15 20 8 38 15 41 15 6 0 107
47 198 92 97 48 278 155 305 180 11 10 20 16 20 13 0 -4 6 0 14 7 7 7 24 20
36 28 62 41 218 177 325 285 138 139 176 182 280 325 30 41 58 80 62 86 15 20
33 49 40 64 4 8 21 38 39 66 53 83 194 385 211 449 1 6 13 40 27 78 13 37 22
67 21 67 -2 0 3 16 11 35 7 19 14 36 14 38 0 2 -254 3 -565 3 -589 0 -569 2
-580 -36 -31 -117 -197 -403 -301 -519 -62 -70 -146 -151 -156 -151 -5 0 -6
-4 -3 -10 3 -5 2 -10 -3 -10 -4 0 -24 -13 -43 -30 -47 -41 -46 -40 -120 -91
-36 -25 -90 -59 -120 -75 -30 -16 -55 -32 -57 -36 -2 -5 -12 -8 -23 -8 -10 0
-19 -4 -19 -10 0 -5 -8 -10 -18 -10 -10 0 -22 -4 -28 -9 -5 -5 -36 -18 -69
-30 -33 -12 -67 -25 -75 -28 -8 -3 -18 -7 -22 -8 -5 -2 -9 -3 -10 -5 -2 -1
-11 -3 -20 -5 -9 -2 -32 -8 -50 -14 -18 -6 -44 -12 -58 -15 -14 -3 -59 -12
-100 -20 -155 -30 -232 -37 -445 -38 -208 -1 -324 9 -465 37 -14 3 -36 7 -50
10 -27 5 -129 33 -225 61 -33 10 -63 22 -66 27 -3 5 -10 9 -15 9 -5 0 -19 4
-32 9 -13 5 -25 9 -27 9 -7 0 -172 83 -210 105 -22 13 -47 27 -55 31 -13 6
-83 53 -115 77 -174 129 -287 239 -395 382 -25 33 -47 62 -50 65 -11 11 -70
112 -70 120 0 5 -4 10 -9 12 -18 7 -147 297 -161 363 -1 6 -6 16 -12 23 -6 6
-8 12 -5 12 3 0 -2 21 -10 48 -24 76 -44 167 -58 257 -2 11 -4 20 -5 20 -1 0
-3 16 -5 35 -3 19 -7 50 -11 69 -3 19 -8 64 -10 99 -3 36 -5 68 -6 71 0 3 0
11 1 16 1 7 844 10 2517 10 1670 0 2518 3 2522 10 9 15 10 20 29 320 8 125 7
488 -1 575 -14 147 -17 176 -20 200 -2 14 -7 48 -11 75 -4 28 -9 57 -10 65 -2
8 -13 58 -24 110 -11 52 -25 113 -31 135 -6 22 -13 49 -15 60 -9 38 -56 180
-82 245 -14 36 -33 83 -42 105 -23 59 -166 338 -195 382 -14 21 -26 41 -26 46
0 4 -4 13 -10 20 -5 7 -47 64 -92 128 -85 120 -131 178 -183 233 -16 17 -51
55 -77 83 -27 29 -48 51 -48 49 0 -2 -28 23 -62 55 -106 98 -119 109 -126 109
-4 0 -15 8 -24 18 -26 27 -46 42 -57 42 -5 0 -11 4 -13 8 -9 23 -321 215 -433
266 -22 10 -67 32 -100 48 -33 16 -61 29 -63 29 -1 -1 -18 6 -38 14 -20 8 -40
15 -45 15 -5 0 -17 4 -27 10 -21 11 -228 79 -262 85 -14 2 -43 9 -65 14 -91
23 -172 41 -210 45 -22 3 -51 7 -65 10 -32 7 -126 19 -162 20 -16 1 -28 3 -28
6 0 3 -32 5 -70 5 -38 0 -70 2 -70 5 0 5 -398 8 -403 3z m392 -897 c35 -3 71
-8 80 -10 9 -3 38 -8 64 -12 51 -6 281 -66 342 -88 123 -45 387 -171 393 -188
2 -4 8 -8 13 -8 10 0 131 -81 156 -104 6 -6 26 -22 44 -36 30 -22 164 -154
208 -205 61 -69 231 -327 231 -350 0 -2 12 -30 26 -62 51 -112 74 -173 68
-173 -2 0 2 -13 10 -29 9 -16 13 -31 10 -34 -3 -3 -2 -12 2 -19 5 -7 9 -17 10
-23 1 -5 5 -21 8 -35 23 -101 40 -204 50 -305 7 -73 9 -206 3 -212 -9 -9 -89
-11 -113 -2 -11 4 -28 3 -38 -3 -11 -6 -21 -6 -30 1 -7 6 -15 8 -18 6 -11 -11
-50 -14 -72 -6 -13 5 -29 5 -40 -1 -11 -6 -21 -6 -30 1 -7 6 -15 8 -18 6 -11
-11 -50 -14 -72 -6 -13 5 -29 5 -40 -1 -11 -6 -21 -6 -30 1 -7 6 -16 8 -20 4
-11 -11 -256 -9 -256 2 0 7 -3 7 -8 0 -4 -6 -55 -10 -117 -10 -62 0 -113 4
-117 10 -5 7 -8 7 -8 0 0 -9 -63 -12 -95 -5 -5 1 -12 1 -15 0 -19 -8 -280 -3
-280 5 0 7 -3 7 -8 0 -4 -6 -55 -10 -117 -10 -62 0 -113 4 -117 10 -5 7 -8 7
-8 0 0 -6 -72 -10 -195 -10 -123 0 -195 4 -195 10 0 7 -3 7 -8 0 -4 -6 -55
-10 -117 -10 -62 0 -113 4 -117 10 -5 7 -8 7 -8 0 0 -9 -63 -12 -95 -5 -5 1
-12 1 -15 0 -19 -8 -280 -3 -280 5 0 7 -3 7 -8 0 -4 -6 -55 -10 -117 -10 -62
0 -113 4 -117 10 -5 7 -8 7 -8 0 0 -6 -44 -10 -112 -10 -64 0 -116 4 -120 10
-5 7 -8 7 -8 0 0 -6 -45 -10 -115 -10 -70 0 -115 4 -115 10 0 7 -3 7 -8 0 -4
-6 -55 -10 -117 -10 -62 0 -113 4 -117 10 -5 7 -8 7 -8 0 0 -6 -57 -10 -152
-9 l-153 1 1 49 c1 27 4 68 8 91 11 74 18 128 19 141 0 6 3 12 6 12 3 0 7 10
7 23 3 41 14 99 23 116 5 9 12 34 16 56 4 22 10 44 13 50 4 5 8 17 9 26 1 9 8
29 15 45 6 16 13 34 13 39 1 6 7 23 13 38 7 16 12 30 12 32 0 2 16 38 35 79
19 42 35 81 35 86 0 6 4 10 8 10 5 0 16 17 25 38 25 56 53 101 136 216 73 101
201 235 308 323 125 103 326 225 463 281 30 13 64 27 75 31 33 14 111 41 131
46 11 2 56 13 102 25 46 11 100 22 120 25 20 4 51 8 67 11 17 2 49 6 72 7 24
2 45 6 48 9 7 6 392 2 474 -6z"/>
<path d="M11620 18632 c-7 -3 -10 -1063 -10 -3153 l0 -3150 23 -8 c12 -5 23
-5 25 0 2 4 14 4 28 -1 15 -6 24 -6 24 0 0 6 9 6 23 1 13 -5 30 -5 37 -1 8 5
18 6 23 3 13 -8 87 -9 87 -1 0 4 14 3 30 -2 17 -5 30 -5 30 0 0 5 7 7 15 4 23
-9 105 -10 105 -1 0 5 4 5 10 2 14 -8 118 -10 126 -2 4 3 15 2 25 -3 12 -7 20
-7 24 0 4 6 11 8 16 5 13 -9 99 -11 99 -3 0 4 14 3 30 -2 17 -5 30 -5 30 0 0
5 10 6 22 1 13 -4 35 -5 50 -1 14 5 29 5 33 2 7 -7 112 -5 124 3 10 5 12 6304
2 6306 -18 3 -1023 3 -1031 1z"/>
<path d="M27909 18632 c-27 -3 -27 -4 45 -112 155 -238 176 -272 176 -281 0
-5 3 -9 8 -9 4 0 18 -20 32 -45 14 -25 28 -45 32 -45 5 0 8 -5 8 -11 0 -6 21
-43 48 -83 26 -40 52 -81 59 -92 7 -10 40 -63 75 -117 35 -53 68 -105 73 -115
6 -9 31 -48 56 -87 106 -162 162 -250 160 -254 -2 -2 1 -7 6 -10 5 -3 49 -69
98 -146 48 -77 92 -141 97 -143 4 -2 8 -8 8 -14 0 -5 14 -29 30 -53 17 -24 30
-48 30 -54 0 -6 5 -11 10 -11 6 0 10 -6 10 -13 0 -8 9 -22 20 -32 11 -10 20
-24 20 -32 0 -7 5 -13 10 -13 6 0 10 -6 10 -13 0 -7 9 -23 20 -35 11 -12 20
-24 20 -27 0 -7 93 -152 110 -172 5 -7 10 -15 10 -18 0 -4 13 -25 29 -48 15
-23 53 -80 83 -127 100 -157 153 -240 163 -258 6 -9 12 -19 15 -22 11 -11 50
-69 50 -75 0 -8 94 -149 105 -157 6 -4 6 -8 2 -8 -4 0 -3 -6 3 -12 6 -7 28
-40 49 -73 21 -33 66 -102 100 -154 34 -52 61 -96 61 -98 0 -2 11 -19 25 -37
14 -18 25 -38 25 -44 0 -6 5 -12 11 -14 8 -3 5 -15 -7 -37 -11 -19 -23 -42
-29 -52 -5 -11 -13 -19 -18 -19 -4 0 -5 -4 -2 -10 3 -5 2 -10 -2 -10 -5 0 -22
-22 -38 -50 -16 -27 -33 -50 -37 -50 -4 0 -8 -5 -8 -10 0 -6 -36 -65 -80 -131
-44 -67 -80 -125 -80 -129 0 -4 -7 -13 -16 -21 -9 -7 -23 -27 -32 -45 -9 -17
-36 -59 -59 -94 -24 -34 -43 -64 -43 -67 0 -3 -11 -21 -25 -39 -14 -18 -25
-37 -25 -43 0 -6 -4 -11 -9 -11 -6 0 -16 -11 -23 -25 -16 -32 -220 -348 -228
-355 -4 -3 -9 -12 -13 -20 -7 -15 -189 -296 -204 -315 -5 -5 -20 -28 -33 -50
-13 -22 -29 -43 -34 -47 -6 -4 -7 -8 -3 -8 5 0 -4 -17 -20 -37 -37 -49 -67
-97 -64 -102 2 -2 -4 -8 -13 -13 -9 -5 -16 -13 -16 -18 0 -5 -35 -62 -78 -127
-43 -65 -89 -136 -102 -158 -14 -22 -32 -49 -42 -59 -10 -11 -18 -23 -18 -26
0 -7 -142 -227 -159 -247 -6 -7 -11 -14 -11 -17 0 -9 -83 -131 -92 -134 -4 -2
-8 -8 -8 -14 0 -5 -13 -29 -30 -53 -16 -24 -30 -46 -30 -50 0 -3 -5 -11 -11
-18 -6 -7 -57 -84 -114 -172 -57 -88 -108 -165 -114 -172 -6 -7 -11 -15 -11
-19 0 -3 -9 -17 -20 -31 -21 -27 -27 -48 -10 -38 6 3 10 2 10 -4 0 -7 8 -7 25
-1 14 5 25 6 25 2 0 -8 68 -8 76 1 4 4 15 2 25 -3 12 -7 20 -7 24 0 4 6 13 7
22 2 8 -5 33 -6 54 -2 22 4 42 4 45 -1 2 -4 16 -4 29 1 15 6 27 6 30 -1 4 -6
13 -6 23 0 9 5 26 5 39 0 14 -5 23 -5 23 1 0 6 9 6 23 1 13 -5 30 -5 37 -1 8
5 18 6 23 3 13 -8 87 -9 87 -1 0 4 14 3 30 -2 17 -5 30 -5 30 0 0 5 7 7 15 4
22 -9 105 -10 105 -2 0 4 6 5 14 2 22 -8 126 -10 126 -2 0 4 11 3 25 -2 16 -6
25 -6 25 0 0 5 9 6 22 1 48 -18 77 9 154 144 6 11 41 68 78 128 36 59 66 111
66 116 0 5 4 11 8 13 4 2 46 65 92 141 47 76 92 148 100 161 34 54 70 119 70
127 0 4 6 12 13 16 11 7 23 27 61 98 6 11 13 22 17 25 11 10 69 111 69 120 0
6 5 10 10 10 6 0 14 8 17 18 4 9 31 58 61 107 30 50 63 105 74 124 10 18 26
40 34 48 7 8 14 21 14 29 0 8 5 14 10 14 6 0 10 6 10 14 0 8 6 21 13 28 6 7
21 30 32 51 11 20 23 37 27 37 5 0 8 5 8 11 0 6 15 34 34 62 18 29 57 93 86
142 30 50 56 92 59 95 3 3 12 15 19 28 31 56 38 67 50 80 6 7 12 20 12 28 0 8
4 14 8 14 5 0 15 12 23 28 7 15 28 50 46 79 18 29 33 55 33 58 0 3 5 11 10 18
6 7 27 38 46 70 20 31 39 57 42 56 9 0 72 -98 72 -110 0 -5 5 -9 10 -9 6 0 10
-5 10 -10 0 -6 32 -58 70 -116 39 -58 70 -107 70 -109 0 -2 50 -80 110 -175
61 -94 110 -175 110 -180 0 -4 3 -10 8 -12 4 -1 23 -28 42 -58 19 -30 63 -100
99 -155 35 -55 63 -102 62 -104 -2 -2 1 -7 6 -10 13 -10 103 -150 103 -161 0
-5 5 -10 10 -10 6 0 10 -5 10 -11 0 -6 17 -36 39 -67 21 -32 79 -122 129 -202
51 -80 96 -150 100 -156 5 -5 15 -21 22 -34 11 -20 106 -169 140 -220 46 -67
110 -173 110 -181 0 -5 5 -9 10 -9 6 0 10 -5 10 -10 0 -6 5 -16 10 -23 6 -7
25 -34 42 -62 73 -116 94 -144 105 -140 7 2 15 1 17 -4 3 -4 26 -5 51 -1 25 4
48 3 51 -1 2 -5 16 -4 29 1 15 6 27 6 30 -1 4 -6 13 -6 23 0 9 5 26 5 39 0 14
-5 23 -5 23 1 0 6 9 6 23 1 13 -5 30 -5 37 -1 8 5 18 6 23 3 13 -8 87 -9 87
-1 0 4 14 3 30 -2 17 -5 30 -5 30 0 0 5 7 7 15 4 23 -9 105 -10 105 -1 0 5 4
5 10 2 14 -8 118 -10 126 -2 4 3 15 2 25 -3 12 -7 20 -7 24 0 4 6 11 8 16 5
13 -9 99 -11 99 -3 0 4 14 3 30 -2 17 -5 30 -5 30 0 0 5 13 5 30 0 19 -5 30
-5 30 1 0 6 7 6 19 -1 13 -7 22 -7 26 0 4 6 13 7 22 2 21 -12 63 -3 63 14 0 8
-4 14 -10 14 -5 0 -10 5 -10 10 0 6 -18 38 -40 71 -22 33 -40 65 -40 70 0 5
-3 9 -8 9 -4 0 -12 9 -17 20 -6 10 -55 89 -110 175 -55 86 -104 163 -110 173
-5 9 -26 42 -46 72 -84 129 -238 369 -254 398 -5 9 -12 19 -15 22 -3 3 -10 14
-17 25 -16 27 -153 242 -213 335 -27 41 -63 99 -80 128 -18 28 -38 59 -46 67
-9 8 -13 15 -9 15 3 0 1 6 -5 13 -17 20 -110 167 -122 193 -6 13 -15 24 -20
24 -4 0 -8 7 -8 15 0 8 -4 15 -10 15 -5 0 -10 7 -10 15 0 8 -4 15 -10 15 -5 0
-10 5 -10 10 0 12 -70 122 -85 132 -7 5 -7 8 0 8 6 0 6 3 0 8 -6 4 -26 32 -45
62 -19 30 -38 56 -42 58 -5 2 -8 8 -8 12 0 5 -24 47 -53 92 -88 136 -111 173
-108 176 1 1 -5 9 -13 17 -8 8 -31 43 -52 77 -21 35 -43 66 -48 70 -7 5 -7 8
-1 8 6 0 6 3 -1 8 -6 4 -39 52 -74 107 -35 55 -83 132 -108 170 -25 39 -62 97
-83 130 -21 33 -42 65 -46 70 -4 6 -16 25 -26 42 -14 25 -15 34 -4 45 20 21
52 72 49 81 -1 4 3 7 8 7 6 0 16 12 23 28 6 15 16 32 20 37 21 25 157 239 157
246 0 5 4 9 9 9 5 0 14 14 21 30 7 17 16 30 21 30 5 0 9 4 9 10 0 5 26 49 58
97 32 48 95 144 140 213 44 69 86 131 92 138 6 6 8 12 5 12 -3 0 -1 6 5 13 6
6 49 71 95 142 46 72 89 135 95 142 5 7 10 14 10 17 0 3 17 31 39 63 82 123
121 185 121 194 0 5 3 9 8 9 4 0 23 26 41 58 19 31 37 59 41 62 3 3 28 40 55
84 129 203 299 466 310 479 6 7 42 62 80 122 38 61 73 112 77 113 4 2 8 8 8
14 0 6 11 26 25 44 14 18 25 37 25 43 0 6 5 11 10 11 6 0 10 4 10 9 0 6 25 46
55 90 30 44 55 83 55 86 0 4 11 21 25 39 14 18 25 38 25 44 0 6 3 12 8 14 4 2
27 35 52 73 25 39 48 75 53 80 34 43 73 114 63 117 -9 3 -1019 2 -1067 -1 -9
-1 -36 -33 -59 -73 -45 -74 -84 -136 -98 -153 -4 -5 -8 -12 -8 -15 0 -3 -37
-65 -82 -138 -45 -73 -82 -135 -82 -138 0 -2 -5 -10 -10 -17 -6 -7 -70 -109
-141 -227 -72 -118 -146 -238 -165 -267 -19 -28 -34 -54 -34 -57 0 -4 -15 -30
-34 -59 -77 -120 -196 -318 -196 -327 0 -6 -4 -10 -10 -10 -5 0 -10 -7 -10
-15 0 -8 -4 -15 -10 -15 -5 0 -10 -4 -10 -9 0 -7 -81 -142 -142 -239 -10 -15
-23 -38 -28 -52 -6 -13 -14 -27 -18 -30 -9 -6 -62 -88 -62 -95 0 -9 -64 -110
-72 -113 -4 -2 -8 -8 -8 -14 0 -6 -20 -41 -45 -79 -25 -38 -45 -71 -45 -73 0
-3 -16 -31 -35 -61 -33 -51 -55 -63 -55 -30 0 7 -3 15 -8 17 -4 2 -27 35 -52
73 -25 39 -48 72 -52 73 -5 2 -8 8 -8 13 0 5 -27 50 -60 100 -33 50 -60 95
-60 100 0 5 -4 9 -10 9 -5 0 -10 4 -10 9 0 9 -148 244 -169 268 -6 7 -11 15
-11 18 0 5 -70 115 -80 125 -3 3 -12 17 -20 32 -14 26 -54 89 -234 369 -45 69
-85 133 -91 142 -24 39 -155 243 -162 252 -4 6 -35 53 -67 105 -33 52 -65 98
-70 102 -7 5 -7 8 -1 8 6 0 6 3 0 8 -6 4 -26 32 -45 62 -19 30 -38 57 -42 58
-5 2 -8 8 -8 13 0 7 -51 90 -130 209 -5 8 -29 44 -52 80 l-43 65 -565 0 c-311
0 -577 -1 -591 -3z"/>
</g>
</svg>
