<svg width="282" height="256" viewBox="0 0 282 256" fill="none" xmlns="http://www.w3.org/2000/svg">
<path d="M184.039 38.4307C183.427 38.9223 182.714 39.2728 181.95 39.4573C179.856 39.9234 174.28 39.6874 173.336 42.248C173.035 43.0163 172.565 43.7075 171.962 44.271C171.358 44.8345 170.637 45.256 169.85 45.5048C169.85 45.5048 165.43 45.7408 165.194 46.6848C164.958 47.6288 163.336 49.2454 163.336 49.2454H239.44C239.44 49.2454 242.001 45.2924 237.812 41.5754C234.148 38.3186 227.451 43.251 226.602 39.2154" stroke="#263238" stroke-linecap="round" stroke-linejoin="round"/>
<path d="M225.911 33.2917C225.062 30.2296 223.274 26.0996 219.645 24.5656C213.592 22.005 208.477 25.4978 207.078 28.9847C205.68 32.4716 204.754 34.8021 199.408 31.7754C194.063 28.7487 189.378 28.9847 187.774 32.9554C187.311 34.1049 186.731 35.2041 186.045 36.2358" stroke="#263238" stroke-linecap="round" stroke-linejoin="round"/>
<path d="M54.7988 78.9989H81.2249C81.2249 78.9989 82.7707 76.6389 80.2396 74.3556C77.7085 72.0723 72.7761 76.3262 73.4841 71.5413C73.4841 71.5413 72.8941 65.6413 69.2597 64.0837C68.3243 63.6552 67.2932 63.4788 66.2686 63.572C65.244 63.6651 64.2615 64.0246 63.4187 64.6147" stroke="#263238" stroke-linecap="round" stroke-linejoin="round"/>
<path d="M61.6609 66.7565C60.8172 68.8687 60.2508 70.2965 57.0176 68.4439C53.7844 66.5913 50.9642 66.7565 49.9789 69.1519C48.9936 71.5473 47.7251 72.8099 46.4389 73.0872C45.1527 73.3645 41.7956 73.2288 41.2292 74.7805C41.0453 75.245 40.7603 75.6628 40.395 76.0036C40.0297 76.3445 39.5931 76.5998 39.117 76.7511C39.117 76.7511 36.4443 76.8868 36.3027 77.4532C36.0212 78.0309 35.6397 78.5542 35.1758 78.999H50.6397" stroke="#263238" stroke-linecap="round" stroke-linejoin="round"/>
<path d="M187.077 78.999H199.555C199.555 78.999 201.101 76.6389 198.57 74.3556C196.039 72.0723 191.112 76.3263 191.814 71.5414C191.814 71.5414 191.254 65.6414 187.59 64.0838C183.926 62.5261 180.84 64.6737 179.991 66.7565C179.141 68.8392 178.587 70.2965 175.348 68.4439C172.108 66.5913 169.294 66.7564 168.315 69.1519C167.335 71.5473 166.061 72.8098 164.775 73.0872C163.489 73.3645 160.131 73.2287 159.571 74.7804C159.386 75.2446 159.101 75.662 158.736 76.0027C158.371 76.3434 157.935 76.599 157.459 76.751C157.459 76.751 154.786 76.8867 154.644 77.4531C154.363 78.0309 153.981 78.5542 153.518 78.999H182.911" stroke="#263238" stroke-linecap="round" stroke-linejoin="round"/>
<g opacity="0.1">
<path opacity="0.1" d="M7.70562 117.98C10.0302 118.44 15.1927 117.196 15.1927 117.196C15.1927 117.196 13.3401 114.039 13.1985 113.856C11.5406 111.72 7.08022 108.546 4.24232 109.608C3.77541 109.794 3.35271 110.075 3.0016 110.435C2.6505 110.794 2.37882 111.223 2.20416 111.695C2.0295 112.166 1.95577 112.668 1.98774 113.17C2.0197 113.671 2.15665 114.16 2.38972 114.605C3.31602 116.529 5.72912 117.585 7.70562 117.98Z" fill="black"/>
<path opacity="0.1" d="M12.7735 132.63C15.0391 132.471 19.3756 130.122 19.7237 129.934C21.064 132.416 22.5678 134.807 24.2254 137.09C25.1812 138.424 26.1901 139.739 27.2167 141.043C26.6562 140.518 26.1547 140.052 26.078 139.993C23.9186 138.377 18.7856 136.518 16.3194 138.264C15.9181 138.567 15.5847 138.95 15.341 139.39C15.0973 139.829 14.9486 140.315 14.9047 140.816C14.8607 141.316 14.9225 141.821 15.0859 142.296C15.2493 142.771 15.5108 143.207 15.8533 143.574C17.2575 145.179 19.8594 145.563 21.8713 145.421C23.8832 145.28 27.6533 143.344 28.6327 142.825C29.0339 143.321 29.4233 143.822 29.8127 144.318C31.7361 146.678 33.6654 149.038 35.4885 151.433C36.1316 152.271 36.7275 153.121 37.3352 153.964C36.8396 153.498 36.4207 153.109 36.3499 153.056C34.1846 151.433 29.0575 149.575 26.5913 151.327C26.1884 151.628 25.8536 152.011 25.6088 152.451C25.364 152.89 25.2147 153.377 25.1707 153.878C25.1268 154.379 25.189 154.884 25.3535 155.359C25.518 155.835 25.781 156.27 26.1252 156.637C27.5294 158.248 30.1313 158.625 32.1432 158.484C34.1551 158.342 37.5594 156.596 38.7276 155.982C39.3176 156.867 39.9076 157.752 40.4504 158.637C40.8044 159.227 41.182 159.817 41.5006 160.448L42.48 162.295C43.07 163.475 43.66 164.726 44.1969 165.906C44.5745 166.726 44.9226 167.511 45.2707 168.307C44.6394 167.464 43.3768 165.841 43.2529 165.717C41.3649 163.794 36.5741 161.18 33.866 162.531C33.4236 162.769 33.036 163.097 32.7286 163.494C32.4213 163.892 32.2009 164.349 32.0818 164.837C31.9627 165.325 31.9476 165.833 32.0375 166.327C32.1274 166.821 32.3202 167.291 32.6034 167.705C33.748 169.511 36.2614 170.278 38.2733 170.443C40.4858 170.626 44.958 169.045 45.5126 168.844C46.1026 170.16 46.6336 171.44 47.1292 172.661C47.5029 173.558 47.851 174.426 48.1735 175.263L50.0143 174.862C49.621 173.938 49.21 172.97 48.7812 171.959C48.1912 170.626 47.5599 169.21 46.8814 167.764C48.1458 166.91 49.3575 165.98 50.5099 164.98C52.3802 166.289 56.6754 167.34 57.23 167.499C56.9822 168.909 56.7344 170.278 56.4748 171.57C56.3391 172.254 56.2034 172.897 56.0677 173.541L58.0147 173.116C58.0914 172.715 58.1622 172.319 58.233 171.9C58.4926 170.467 58.7345 168.95 58.9705 167.351C59.5605 167.351 64.2805 167.275 66.316 166.337C68.145 165.481 70.2336 163.888 70.682 161.8C70.8035 161.312 70.8209 160.804 70.7333 160.309C70.6456 159.815 70.4548 159.344 70.1732 158.927C69.8916 158.511 69.5256 158.159 69.0989 157.893C68.6722 157.628 68.1945 157.455 67.6966 157.386C64.6935 157.056 61.1063 161.168 60.0266 163.634C59.9617 163.782 59.4366 165.44 59.118 166.49C59.2065 165.841 59.3068 165.216 59.3894 164.549C59.5723 163.233 59.7139 161.918 59.8732 160.496C59.9263 159.811 59.9794 159.115 60.0325 158.413C60.0856 157.711 60.0856 156.979 60.1151 156.254C60.1151 154.566 60.1151 152.861 60.0089 151.144C61.1889 151.298 65.2658 151.793 67.2069 151.227C69.148 150.66 71.4549 149.398 72.2101 147.404C72.4051 146.94 72.5002 146.441 72.4893 145.939C72.4783 145.436 72.3616 144.942 72.1467 144.488C71.9319 144.033 71.6236 143.63 71.2421 143.302C70.8606 142.975 70.4145 142.732 69.9327 142.589C66.9827 141.804 62.8527 145.327 61.3777 147.598C61.2892 147.74 60.4219 149.486 59.9617 150.454C59.9027 149.421 59.8437 148.395 59.7493 147.35C59.472 144.341 59.1003 141.303 58.7463 138.27C58.6342 137.338 58.5339 136.412 58.4336 135.486C58.8407 135.545 63.7082 136.241 65.8853 135.604C67.8205 135.014 70.1274 133.775 70.8885 131.78C71.0824 131.317 71.1766 130.817 71.1648 130.315C71.153 129.813 71.0357 129.318 70.8203 128.864C70.6049 128.41 70.2964 128.006 69.9148 127.679C69.5331 127.352 69.087 127.109 68.6052 126.966C65.6552 126.181 61.5252 129.709 60.0561 131.975C59.944 132.146 58.6991 134.665 58.4159 135.32C58.1917 133.273 57.9852 131.238 57.8672 129.22C57.6902 126.497 57.6902 123.765 57.8672 121.042C58.056 121.072 63.13 121.821 65.3602 121.166C67.2954 120.576 69.6082 119.343 70.3634 117.343C70.5574 116.88 70.6518 116.381 70.6404 115.879C70.629 115.377 70.5122 114.883 70.2974 114.428C70.0826 113.974 69.7747 113.571 69.3938 113.243C69.0128 112.916 68.5672 112.673 68.086 112.529C65.136 111.75 61.006 115.272 59.531 117.544C59.4189 117.721 58.0796 120.423 57.8731 120.936C57.8731 120.777 57.8731 120.612 57.8731 120.452C58.1261 117.727 58.6217 115.03 59.354 112.393C59.7375 110.93 60.1918 109.555 60.6579 108.228C61.5901 108.464 65.8558 109.496 67.9267 109.13C69.9976 108.764 72.3458 107.779 73.3193 105.879C73.5624 105.44 73.7104 104.954 73.7536 104.454C73.7968 103.954 73.7343 103.45 73.5702 102.975C73.406 102.501 73.1439 102.066 72.8008 101.699C72.4578 101.333 72.0414 101.042 71.5788 100.847C68.7586 99.7434 64.2333 102.794 62.5282 104.888C62.4397 105 61.6255 106.263 61.0414 107.189C61.2656 106.599 61.478 105.974 61.7022 105.419C62.5341 103.289 63.425 101.389 64.2274 99.708C64.6935 98.7581 65.1301 97.938 65.549 97.1179C66.5815 96.876 70.741 95.8376 72.3812 94.5809C74.0214 93.3242 75.6793 91.3477 75.6675 89.2119C75.6815 88.7094 75.5896 88.2096 75.3977 87.7449C75.2058 87.2803 74.9182 86.8613 74.5537 86.5151C74.1892 86.169 73.7559 85.9034 73.282 85.7358C72.808 85.5681 72.3041 85.5021 71.803 85.5421C68.794 85.8666 66.1803 90.6515 65.6375 93.3006C65.5903 93.5248 65.2599 97.1887 65.313 97.1769H65.372C64.9531 97.9321 64.5165 98.7404 64.0504 99.6372C63.2126 101.301 62.2804 103.177 61.3954 105.307C60.4298 107.566 59.5965 109.878 58.8997 112.234C58.0995 114.888 57.5388 117.609 57.2241 120.364C57.2213 120.397 57.2213 120.431 57.2241 120.464C57.0471 119.597 56.4807 117.184 56.4158 117.001C55.5072 114.458 52.2563 110.08 49.2296 110.175C48.729 110.206 48.2406 110.342 47.7958 110.574C47.3511 110.806 46.9601 111.128 46.6481 111.521C46.336 111.914 46.1099 112.368 45.9845 112.853C45.859 113.339 45.837 113.845 45.9197 114.34C46.2029 116.452 48.1617 118.204 49.9199 119.202C51.9023 120.317 56.817 120.747 57.2064 120.783C56.9544 123.594 56.8893 126.418 57.0117 129.237C57.0766 130.878 57.1887 132.53 57.3244 134.188C57.1533 133.438 56.9881 132.772 56.9586 132.683C56.05 130.14 52.7932 125.762 49.7724 125.857C49.271 125.886 48.7814 126.021 48.3355 126.252C47.8896 126.484 47.4975 126.806 47.1847 127.199C46.8718 127.592 46.6453 128.047 46.5199 128.533C46.3944 129.02 46.3729 129.527 46.4566 130.022C46.7398 132.14 48.6986 133.893 50.4568 134.884C52.215 135.875 56.4217 136.347 57.5368 136.453C57.5958 137.084 57.643 137.722 57.7079 138.353C57.997 141.397 58.2979 144.43 58.5103 147.421C58.587 148.471 58.6165 149.51 58.6578 150.548C58.4985 149.887 58.3628 149.333 58.3333 149.25C57.4247 146.701 54.2033 142.324 51.1471 142.418C50.6454 142.448 50.1557 142.584 49.7098 142.816C49.2639 143.048 48.8719 143.371 48.5591 143.764C48.2464 144.158 48.0199 144.613 47.8945 145.099C47.7692 145.586 47.7476 146.094 47.8313 146.589C48.1145 148.707 50.0792 150.46 51.8315 151.451C53.5838 152.442 57.3893 152.867 58.705 152.997C58.705 154.059 58.705 155.127 58.705 156.159C58.6578 156.867 58.6637 157.546 58.5811 158.254C58.4985 158.962 58.4454 159.646 58.3805 160.33C58.1976 161.652 58.0265 163.009 57.7905 164.289C57.6548 165.18 57.5073 166.03 57.3598 166.885C57.3008 165.835 57.1356 163.782 57.1061 163.617C56.5595 161.301 55.428 159.164 53.8198 157.41C53.7733 157.149 53.7002 156.894 53.6015 156.649C53.4347 156.175 53.1698 155.742 52.8242 155.377C52.4786 155.012 52.06 154.724 51.5958 154.532C51.1315 154.34 50.6319 154.248 50.1297 154.262C49.6275 154.276 49.1338 154.396 48.6809 154.613C45.9905 155.994 45.2707 161.404 45.7309 164.053C45.7309 164.207 46.2324 165.882 46.5451 166.933C46.2678 166.343 46.0023 165.753 45.7073 165.163C45.1173 163.983 44.5273 162.803 43.8724 161.516L42.8576 159.693C42.5272 159.103 42.1083 158.466 41.7307 157.847C40.828 156.425 39.8427 155.026 38.822 153.646C39.8722 153.138 43.542 151.286 44.8754 149.74C46.2088 148.194 47.4065 145.875 46.9404 143.793C46.844 143.301 46.6455 142.834 46.3576 142.423C46.0698 142.013 45.699 141.667 45.2692 141.408C44.8395 141.15 44.3603 140.984 43.8625 140.922C43.3648 140.861 42.8597 140.904 42.3797 141.049C39.5123 142.011 37.9842 147.25 38.0137 149.946C38.0137 150.118 38.2556 152.053 38.4031 153.115C37.8131 152.289 37.17 151.457 36.5151 150.637C34.6271 148.277 32.6388 145.952 30.6682 143.622C30.0782 142.908 29.4882 142.188 28.8982 141.474C29.2699 141.297 33.7126 139.191 35.1758 137.456C36.4797 135.916 37.7069 133.592 37.2408 131.509C37.1475 131.015 36.9511 130.546 36.6643 130.133C36.3774 129.72 36.0067 129.372 35.5763 129.112C35.1459 128.852 34.6655 128.686 34.1664 128.624C33.6674 128.562 33.1609 128.606 32.6801 128.754C29.8127 129.709 28.2846 134.949 28.3141 137.651C28.3141 137.851 28.6681 140.636 28.7861 141.338C27.4763 139.763 26.1783 138.176 24.9688 136.559C23.3215 134.385 21.8159 132.107 20.4612 129.739C20.6323 129.656 25.2756 127.479 26.7742 125.703C28.0781 124.163 29.3112 121.839 28.8392 119.756C28.7458 119.263 28.5495 118.794 28.2631 118.382C27.9766 117.969 27.6065 117.622 27.1768 117.362C26.7471 117.102 26.2674 116.935 25.7691 116.873C25.2707 116.811 24.7649 116.855 24.2844 117.001C21.4111 117.957 19.883 123.196 19.9125 125.898C19.9125 126.11 20.296 129.108 20.4022 129.645C20.3255 129.503 20.2252 129.373 20.1485 129.232C18.8601 126.817 17.7861 124.294 16.9389 121.691C16.4551 120.264 16.0716 118.865 15.7589 117.496C16.6675 117.184 20.7916 115.691 22.3197 114.24C23.8478 112.788 25.2697 110.7 25.0219 108.558C24.9841 108.057 24.841 107.569 24.602 107.127C24.3629 106.685 24.0333 106.298 23.6347 105.992C23.2361 105.685 22.7774 105.467 22.2885 105.35C21.7996 105.233 21.2916 105.22 20.7975 105.313C17.8475 105.95 15.7471 110.989 15.4875 113.679C15.4875 113.827 15.4875 115.325 15.5229 116.423C15.3754 115.803 15.2161 115.166 15.0863 114.57C14.6025 112.334 14.2957 110.257 14.042 108.416C13.9063 107.366 13.806 106.416 13.7175 105.525C14.4432 104.752 17.3342 101.59 18.0127 99.6254C18.6912 97.6607 18.9803 95.106 17.7944 93.336C17.5286 92.9091 17.1759 92.5429 16.7594 92.2612C16.3428 91.9794 15.8717 91.7884 15.3765 91.7005C14.8814 91.6126 14.3733 91.6297 13.8852 91.7509C13.3971 91.8721 12.94 92.0945 12.5434 92.4038C10.2188 94.3331 10.679 99.7729 11.682 102.28C11.7646 102.499 13.511 105.732 13.5464 105.691L13.5936 105.643C13.6585 106.505 13.7411 107.413 13.8473 108.428C14.0656 110.275 14.3252 112.363 14.7618 114.623C15.2116 117.059 15.8026 119.466 16.5318 121.833C17.329 124.486 18.3616 127.063 19.6175 129.532C19.6175 129.532 19.6529 129.591 19.6647 129.621C19.0747 128.99 17.2398 127.29 17.0864 127.178C14.9211 125.556 9.79403 123.697 7.32783 125.45C6.9249 125.751 6.5901 126.134 6.34531 126.573C6.10052 127.013 5.95124 127.499 5.90725 128C5.86326 128.502 5.92553 129.006 6.09001 129.482C6.25448 129.957 6.51745 130.393 6.86173 130.76C8.15973 132.376 10.7616 132.754 12.7735 132.63Z" fill="black"/>
<path opacity="0.1" d="M60.4222 107.679C60.4753 107.679 60.6168 104.027 60.5991 103.797C60.3926 101.1 58.4103 96.0204 55.4721 95.3124C54.9803 95.2089 54.4723 95.21 53.981 95.3157C53.4896 95.4214 53.0261 95.6293 52.6204 95.9259C52.2147 96.2225 51.876 96.6012 51.6263 97.0373C51.3766 97.4734 51.2214 97.9571 51.171 98.4571C50.8878 100.575 52.3156 102.782 53.7434 104.204C55.4249 105.873 60.4222 107.679 60.4222 107.679Z" fill="black"/>
</g>
<g opacity="0.1">
<path opacity="0.1" d="M270.746 168.791C268.752 168.862 264.628 167.139 264.628 167.139C264.628 167.139 266.587 164.779 266.734 164.632C268.392 163.08 272.516 161.062 274.741 162.272C275.104 162.488 275.418 162.779 275.661 163.124C275.905 163.47 276.074 163.863 276.156 164.278C276.239 164.693 276.233 165.121 276.139 165.533C276.046 165.946 275.867 166.334 275.614 166.673C274.581 168.172 272.44 168.726 270.746 168.791Z" fill="black"/>
<path opacity="0.1" d="M264.58 180.272C262.716 179.842 259.429 177.322 259.164 177.104C257.713 178.99 256.136 180.776 254.444 182.45C253.47 183.435 252.461 184.391 251.435 185.341C251.966 184.975 252.444 184.656 252.52 184.621C254.532 183.559 259.04 182.703 260.857 184.485C261.151 184.789 261.377 185.152 261.521 185.55C261.665 185.947 261.724 186.37 261.694 186.792C261.664 187.214 261.546 187.625 261.347 187.998C261.148 188.371 260.872 188.698 260.539 188.957C259.158 190.108 256.945 190.072 255.293 189.689C253.641 189.305 250.762 187.193 250.019 186.627C249.618 186.987 249.228 187.352 248.839 187.706C246.927 189.429 245.01 191.134 243.175 192.869C242.532 193.459 241.918 194.102 241.305 194.722C241.777 194.403 242.178 194.132 242.243 194.096C244.255 193.04 248.768 192.185 250.585 193.966C250.879 194.27 251.105 194.632 251.249 195.029C251.393 195.426 251.452 195.849 251.422 196.271C251.392 196.692 251.274 197.102 251.075 197.475C250.875 197.847 250.6 198.174 250.267 198.433C248.886 199.613 246.674 199.554 245.016 199.17C243.358 198.787 240.768 196.875 239.877 196.22C239.287 196.875 238.655 197.536 238.107 198.197C237.729 198.657 237.34 199.076 236.992 199.565L235.93 200.97C235.292 201.884 234.626 202.828 234.024 203.737C233.599 204.368 233.21 204.976 232.809 205.589C233.446 204.97 234.714 203.819 234.832 203.707C236.661 202.356 240.986 200.828 243.057 202.309C243.393 202.566 243.671 202.891 243.873 203.262C244.075 203.634 244.197 204.043 244.231 204.465C244.265 204.887 244.21 205.311 244.07 205.71C243.93 206.109 243.707 206.474 243.417 206.781C242.237 208.126 240.03 208.433 238.337 208.297C236.478 208.156 232.974 206.244 232.537 206.002C231.882 207.017 231.257 208.008 230.685 208.952C230.26 209.649 229.853 210.327 229.469 210.976L227.994 210.386C228.437 209.666 228.909 208.923 229.404 208.138C230.065 207.106 230.791 206.02 231.546 204.905C230.609 204.027 229.726 203.093 228.903 202.108C227.174 202.946 223.463 203.288 223.003 203.288C223.003 204.468 223.044 205.648 223.091 206.769C223.091 207.359 223.138 207.914 223.162 208.463L221.604 207.873C221.604 207.525 221.604 207.188 221.604 206.828C221.604 205.601 221.604 204.291 221.604 202.952C221.121 202.869 217.179 202.179 215.634 201.129C214.229 200.173 212.684 198.568 212.613 196.775C212.576 196.353 212.629 195.929 212.767 195.529C212.906 195.129 213.127 194.763 213.417 194.455C213.706 194.147 214.057 193.903 214.448 193.739C214.838 193.576 215.258 193.496 215.681 193.506C218.218 193.636 220.649 197.53 221.239 199.725C221.274 199.855 221.492 201.3 221.616 202.22C221.616 201.666 221.616 201.135 221.646 200.568C221.646 199.453 221.728 198.338 221.781 197.141C221.835 196.551 221.882 195.961 221.929 195.371C221.976 194.781 222.076 194.191 222.153 193.565C222.348 192.161 222.619 190.751 222.92 189.335C221.941 189.335 218.466 189.176 216.926 188.444C215.386 187.712 213.645 186.361 213.28 184.597C213.181 184.186 213.17 183.759 213.246 183.344C213.323 182.929 213.487 182.534 213.726 182.186C213.965 181.837 214.275 181.543 214.635 181.323C214.995 181.102 215.398 180.959 215.817 180.904C218.348 180.644 221.339 184.125 222.253 186.214C222.312 186.344 222.802 187.913 223.05 188.774C223.239 187.925 223.422 187.075 223.64 186.226C224.271 183.759 224.985 181.287 225.687 178.815C225.906 178.054 226.106 177.299 226.319 176.544C225.97 176.544 221.835 176.467 220.112 175.647C218.578 174.915 216.825 173.558 216.466 171.8C216.365 171.389 216.352 170.962 216.428 170.546C216.504 170.129 216.668 169.734 216.907 169.385C217.147 169.037 217.457 168.742 217.818 168.522C218.179 168.302 218.583 168.16 219.003 168.107C221.534 167.847 224.525 171.328 225.439 173.417C225.504 173.57 226.206 175.83 226.354 176.408C226.814 174.744 227.257 173.074 227.622 171.417C228.134 169.179 228.498 166.911 228.714 164.626C228.549 164.626 224.236 164.567 222.472 163.723C220.938 162.997 219.185 161.64 218.82 159.882C218.72 159.471 218.708 159.043 218.784 158.627C218.861 158.211 219.024 157.816 219.263 157.467C219.503 157.118 219.813 156.823 220.173 156.602C220.534 156.381 220.937 156.238 221.357 156.183C223.894 155.923 226.879 159.41 227.794 161.493C227.87 161.658 228.62 164.089 228.726 164.537C228.726 164.401 228.761 164.266 228.773 164.136C228.926 161.837 228.873 159.529 228.614 157.239C228.49 155.976 228.301 154.773 228.089 153.604C227.286 153.675 223.605 153.964 221.929 153.386C220.253 152.808 218.436 151.675 217.882 149.964C217.738 149.566 217.679 149.143 217.71 148.721C217.741 148.299 217.86 147.888 218.06 147.516C218.259 147.143 218.535 146.816 218.87 146.557C219.204 146.298 219.589 146.112 220 146.011C222.484 145.474 225.841 148.607 226.979 150.578C227.038 150.684 227.569 151.84 227.906 152.69C227.805 152.165 227.705 151.622 227.599 151.121C227.192 149.238 226.702 147.539 226.26 146.041C226 145.191 225.746 144.424 225.504 143.681C224.678 143.338 221.374 141.911 220.194 140.66C219.014 139.409 217.882 137.533 218.177 135.763C218.231 135.343 218.373 134.939 218.594 134.578C218.815 134.217 219.11 133.907 219.459 133.667C219.808 133.428 220.204 133.265 220.62 133.189C221.037 133.113 221.465 133.125 221.876 133.226C224.33 133.898 225.864 138.223 225.97 140.495C225.97 140.695 225.764 143.775 225.723 143.757H225.67C225.917 144.442 226.177 145.173 226.442 145.982C226.92 147.474 227.445 149.168 227.894 151.044C228.405 153.065 228.799 155.114 229.074 157.18C229.383 159.493 229.488 161.828 229.387 164.16C229.383 164.187 229.383 164.215 229.387 164.242C229.646 163.54 230.443 161.611 230.519 161.469C231.611 159.481 234.897 156.271 237.399 156.749C237.811 156.841 238.2 157.019 238.54 157.271C238.879 157.523 239.162 157.843 239.369 158.212C239.577 158.58 239.705 158.988 239.744 159.409C239.784 159.83 239.735 160.254 239.599 160.655C239.08 162.378 237.239 163.605 235.629 164.195C233.829 164.862 229.687 164.561 229.363 164.537C229.16 166.903 228.802 169.252 228.289 171.57C228.018 172.927 227.699 174.284 227.369 175.641C227.611 175.051 227.835 174.514 227.876 174.461C228.974 172.467 232.26 169.263 234.756 169.741C235.169 169.832 235.558 170.009 235.898 170.261C236.238 170.513 236.521 170.834 236.729 171.202C236.936 171.571 237.064 171.979 237.103 172.4C237.142 172.821 237.092 173.246 236.956 173.647C236.437 175.364 234.596 176.561 232.986 177.151C231.375 177.741 227.835 177.57 226.897 177.505C226.767 178.025 226.637 178.55 226.501 179.063C225.852 181.553 225.198 184.037 224.625 186.491C224.425 187.358 224.254 188.214 224.088 189.075C224.307 188.544 224.49 188.102 224.525 188.037C225.622 186.043 228.909 182.839 231.41 183.317C231.823 183.409 232.212 183.587 232.551 183.839C232.891 184.091 233.173 184.411 233.381 184.78C233.588 185.148 233.716 185.556 233.756 185.977C233.795 186.397 233.746 186.822 233.611 187.223C233.092 188.94 231.251 190.137 229.634 190.727C228.018 191.317 224.832 191.158 223.734 191.093C223.587 191.978 223.439 192.863 223.333 193.73C223.28 194.32 223.186 194.91 223.156 195.5L223.05 197.27C223.02 198.391 222.985 199.542 222.985 200.633C222.985 201.394 222.985 202.12 222.985 202.846C223.174 201.984 223.575 200.303 223.634 200.167C224.391 198.317 225.61 196.692 227.174 195.447C227.249 195.242 227.344 195.044 227.457 194.857C227.66 194.487 227.938 194.163 228.274 193.907C228.61 193.65 228.996 193.468 229.407 193.37C229.819 193.273 230.246 193.263 230.661 193.342C231.076 193.42 231.47 193.584 231.817 193.825C233.871 195.335 233.747 199.925 232.997 202.085C232.956 202.209 232.342 203.542 231.941 204.374C232.254 203.92 232.531 203.477 232.873 203.011C233.511 202.097 234.171 201.194 234.885 200.226L235.971 198.846C236.325 198.38 236.756 197.925 237.151 197.459C238.095 196.403 239.098 195.371 240.13 194.356C239.322 193.795 236.502 191.766 235.623 190.308C234.744 188.851 234.03 186.768 234.702 185.087C234.846 184.692 235.071 184.332 235.363 184.03C235.654 183.727 236.006 183.489 236.395 183.331C236.784 183.172 237.202 183.097 237.622 183.11C238.041 183.123 238.454 183.223 238.832 183.405C241.086 184.585 241.659 189.14 241.275 191.382C241.275 191.518 240.791 193.099 240.526 193.955C241.151 193.365 241.771 192.745 242.426 192.155C244.314 190.444 246.272 188.774 248.219 187.105L249.989 185.553C249.7 185.358 246.29 183.016 245.305 181.382C244.426 179.93 243.718 177.842 244.384 176.166C244.528 175.771 244.753 175.411 245.045 175.109C245.336 174.806 245.687 174.568 246.076 174.409C246.465 174.25 246.883 174.174 247.303 174.186C247.722 174.198 248.135 174.298 248.514 174.479C250.768 175.659 251.34 180.213 250.957 182.455C250.957 182.627 250.267 184.892 250.072 185.459C251.376 184.326 252.662 183.175 253.883 181.995C255.572 180.397 257.153 178.688 258.615 176.88C258.479 176.786 254.916 174.361 253.895 172.685C253.016 171.228 252.302 169.145 252.969 167.464C253.114 167.066 253.34 166.704 253.634 166.4C253.928 166.095 254.283 165.856 254.675 165.698C255.067 165.539 255.488 165.465 255.91 165.479C256.333 165.494 256.748 165.597 257.128 165.782C259.382 166.962 259.954 171.517 259.571 173.759C259.541 173.936 258.828 176.373 258.668 176.803C258.751 176.703 258.845 176.603 258.928 176.496C260.323 174.664 261.553 172.711 262.604 170.661C263.194 169.534 263.701 168.425 264.167 167.34C263.453 166.956 260.226 165.163 259.152 163.758C258.078 162.354 257.181 160.401 257.659 158.673C257.758 158.261 257.942 157.875 258.2 157.539C258.458 157.204 258.784 156.926 259.157 156.725C259.529 156.524 259.94 156.404 260.362 156.373C260.784 156.341 261.208 156.399 261.606 156.543C263.966 157.469 265.046 161.929 264.91 164.213C264.91 164.337 264.686 165.581 264.521 166.484C264.722 165.994 264.94 165.487 265.111 165.009C265.807 163.239 266.338 161.528 266.798 160.03C267.052 159.18 267.265 158.401 267.453 157.67C266.952 156.926 264.969 153.917 264.669 152.206C264.368 150.495 264.468 148.318 265.689 147.008C265.967 146.689 266.308 146.431 266.691 146.253C267.075 146.074 267.491 145.978 267.914 145.97C268.337 145.963 268.757 146.045 269.146 146.211C269.535 146.376 269.885 146.622 270.173 146.932C271.855 148.849 270.763 153.304 269.583 155.251C269.483 155.422 267.601 157.876 267.577 157.841L267.542 157.793C267.377 158.501 267.182 159.251 266.952 160.071C266.58 161.54 266.061 163.263 265.4 165.08C264.707 167.045 263.899 168.968 262.981 170.838C261.965 172.938 260.763 174.942 259.388 176.827C259.372 176.85 259.354 176.872 259.335 176.892C259.925 176.455 261.665 175.281 261.807 175.204C263.819 174.148 268.332 173.287 270.15 175.069C270.443 175.373 270.669 175.736 270.814 176.133C270.958 176.531 271.017 176.954 270.987 177.376C270.957 177.797 270.838 178.208 270.639 178.581C270.44 178.954 270.165 179.281 269.831 179.541C268.45 180.691 266.232 180.662 264.58 180.272Z" fill="black"/>
<path opacity="0.1" d="M228.313 153.203C228.266 153.203 228.637 150.141 228.684 149.946C229.215 147.74 231.54 143.781 234.077 143.586C234.499 143.566 234.921 143.634 235.315 143.787C235.709 143.941 236.066 144.175 236.364 144.476C236.661 144.776 236.891 145.136 237.04 145.532C237.189 145.928 237.253 146.35 237.228 146.772C237.186 148.542 235.705 150.212 234.325 151.203C232.702 152.365 228.313 153.197 228.313 153.203Z" fill="black"/>
</g>
<path d="M117.104 0.682495L124.479 70.7686" stroke="#263238" stroke-linecap="round" stroke-linejoin="round"/>
<path d="M139.223 15.5741L133.724 16.8367L128.691 26.79L120.72 24.5126L120.496 26.6838L130.408 30.7961L133.954 25.8755V34.46L144.598 34.9202L146.775 25.1911L150.663 28.6249V37.6637H152.952L154.327 26.3357L148.261 16.4945L139.223 15.5741Z" fill="white" stroke="#263238" stroke-linecap="round" stroke-linejoin="round"/>
<path d="M133.955 25.8755L133.872 21.0316" stroke="#263238" stroke-linecap="round" stroke-linejoin="round"/>
<path d="M139.141 18.7601L140.633 21.5626C140.633 21.5626 144.763 22.8724 145.495 23.0553C146.227 23.2382 148.486 22.4948 150.351 22.1231C152.215 21.7514 158.204 24.7368 158.204 24.7368L163.437 24.9256L160.634 21.5626L150.539 20.064L145.306 21.7514L141.766 20.8133L142.521 19.3501L140.84 16.7305L139.141 18.7601Z" fill="black" stroke="#263238" stroke-linecap="round" stroke-linejoin="round"/>
<path d="M139.678 14.7718C139.374 14.7143 139.059 14.7786 138.802 14.9507C138.545 15.1229 138.366 15.3892 138.303 15.6922C138.079 16.8368 137.849 19.6983 137.849 19.6983L140.592 18.8959L143.802 20.2706C143.802 20.2706 144.828 17.2911 144.256 16.2645C143.684 15.2379 141.052 13.8573 139.678 14.7718Z" fill="white" stroke="#263238" stroke-linecap="round" stroke-linejoin="round"/>
<path d="M139.104 13.1727C139.104 13.1727 139.447 16.3764 139.565 17.521C139.683 18.6656 140.367 20.3825 140.821 20.0403C141.276 19.6981 142.88 16.5003 142.88 16.5003L143.683 14.3291L139.104 13.1727Z" fill="white" stroke="#263238" stroke-linecap="round" stroke-linejoin="round"/>
<path d="M139.141 8.49413C139.141 8.49413 138.138 8.40563 138.138 10.0458C138.138 11.686 138.863 11.7745 138.863 11.7745L139.141 8.49413Z" fill="white" stroke="#263238" stroke-linecap="round" stroke-linejoin="round"/>
<path d="M145.849 9.86292C145.979 9.86987 146.106 9.90521 146.221 9.96645C146.336 10.0277 146.436 10.1133 146.514 10.2174C146.592 10.3214 146.647 10.4413 146.673 10.5687C146.7 10.696 146.699 10.8277 146.669 10.9544C146.487 11.9574 144.758 13.3144 144.758 13.3144L145.849 9.86292Z" fill="white" stroke="#263238" stroke-linecap="round" stroke-linejoin="round"/>
<path d="M142.538 5.19005C142.538 5.19005 140.709 4.72985 139.676 6.90695C138.644 9.08405 138.874 11.7154 139.086 13.2022C139.299 14.689 140.691 15.3734 142.066 15.3734C143.441 15.3734 145.494 12.5178 145.954 10.3407C146.414 8.16365 146.084 5.19005 142.538 5.19005Z" fill="white" stroke="#263238" stroke-linecap="round" stroke-linejoin="round"/>
<path d="M118.508 23.244L118.962 26.6778L121.021 26.9079L120.679 23.0139L118.508 23.244Z" fill="white" stroke="#263238" stroke-linecap="round" stroke-linejoin="round"/>
<path d="M120.72 23.1911L121.552 23.079L121.717 24.908L120.885 25.0201L120.72 23.1911Z" fill="white" stroke="#263238" stroke-linecap="round" stroke-linejoin="round"/>
<path d="M150.663 37.6637L149.412 39.6225L149.737 41.5872L150.828 41.481L152.687 40.8261L152.952 37.6637H150.663Z" fill="white" stroke="#263238" stroke-linecap="round" stroke-linejoin="round"/>
<path d="M133.954 34.4601L133.146 37.9883L124.189 49.7765L130.196 66.7036L131.724 66.3732L130.414 50.2131L137.73 42.4605L138.603 43.0092L138.627 51.6586L147.011 65.8304L148.757 65.3879L144.828 51.7412L145.046 37.2213L144.598 34.9203L133.954 34.4601Z" fill="#263238" stroke="#263238" stroke-linecap="round" stroke-linejoin="round"/>
<path d="M130.196 66.7036L128.887 68.5562C128.887 68.5562 126.81 69.5415 126.485 70.0843C126.161 70.6271 128.255 70.5209 128.255 70.5209L130.657 70.3026L133.17 68.6683L131.748 66.3732L130.196 66.7036Z" fill="white" stroke="#263238" stroke-linecap="round" stroke-linejoin="round"/>
<path d="M117.416 3.17822C117.416 3.17822 116.319 5.67982 111.788 7.39672C107.257 9.11362 100.696 10.0517 98.9788 13.6448C97.2619 17.2379 97.2619 16.9311 96.9492 18.9548C96.7822 20.1378 96.2331 21.2338 95.3857 22.0759C95.3857 22.0759 96.9492 22.2352 97.7457 21.1437C98.5422 20.0522 98.8431 16.9252 100.106 16.4532C101.368 15.9812 103.663 15.2201 103.663 15.2201C103.663 15.2201 101.48 17.0963 101.303 18.0344C101.126 18.9725 100.991 21.1614 100.678 22.5656C100.542 23.3333 100.168 24.039 99.6101 24.5834C99.6101 24.5834 101.64 24.5834 102.265 23.1792C102.891 21.775 102.265 19.8988 104.295 18.4887C106.324 17.0786 108.513 17.7099 111.965 17.8633C115.416 18.0167 118.685 15.993 118.685 15.993L117.416 3.17822Z" fill="black" stroke="#263238" stroke-linecap="round" stroke-linejoin="round"/>
<path d="M147.011 65.8303L145.507 70.8276L149.242 70.6801L148.758 65.3878L147.011 65.8303Z" fill="white" stroke="#263238" stroke-linecap="round" stroke-linejoin="round"/>
<path d="M141.288 9.5737C141.223 9.8687 141.016 10.0752 140.816 10.0339C140.615 9.9926 140.509 9.7153 140.574 9.4439C140.639 9.1725 140.845 8.9424 141.046 8.9837C141.246 9.025 141.347 9.2787 141.288 9.5737Z" fill="#263238"/>
<path d="M144.02 10.211C143.955 10.506 143.749 10.7125 143.548 10.6712C143.347 10.6299 143.241 10.3526 143.306 10.0812C143.371 9.80983 143.578 9.57973 143.778 9.62103C143.979 9.66233 144.079 9.91013 144.02 10.211Z" fill="#263238"/>
<path d="M142.202 9.95142L141.477 12.1403H142.662" stroke="#263238" stroke-linecap="round" stroke-linejoin="round"/>
<path d="M140.568 12.7775C140.568 12.7775 141.206 13.869 142.846 13.2318" stroke="#263238" stroke-linecap="round" stroke-linejoin="round"/>
<path d="M140.474 8.03984C140.711 7.91171 140.985 7.86876 141.25 7.91814C141.515 7.96752 141.756 8.10626 141.931 8.31124" stroke="#263238" stroke-linecap="round" stroke-linejoin="round"/>
<path d="M143.3 8.67699C143.459 8.58945 143.636 8.53661 143.817 8.52192C143.998 8.50723 144.181 8.53101 144.352 8.59173C144.524 8.65244 144.681 8.74871 144.812 8.87423C144.944 8.99975 145.048 9.15168 145.117 9.32009" stroke="#263238" stroke-linecap="round" stroke-linejoin="round"/>
<path d="M138.745 7.76841L145.3 6.96011C145.3 6.96011 145.029 8.05161 145.394 8.32301C145.76 8.59441 145.849 9.87471 145.849 9.87471L145.577 11.332L147.035 8.78321C147.035 8.78321 147.489 6.77721 147.123 6.14001C147.003 5.9477 146.844 5.78303 146.656 5.6569C146.468 5.53077 146.255 5.44607 146.032 5.40841C145.642 4.81813 145.092 4.35103 144.446 4.06164C143.8 3.77225 143.086 3.67252 142.385 3.77411C139.837 4.04551 138.745 5.31991 138.745 6.32291V7.76841Z" fill="#263238" stroke="#263238" stroke-linecap="round" stroke-linejoin="round"/>
<path d="M133.907 255.468L145.471 189.111L101.822 149.056L117.664 95.0825L100.707 95.4601L93.5447 101.868L78.5764 101.502L76.5527 108.8L72.4463 108.287L71.0303 110.847L64.027 124.83L60.3866 138.796L46.8166 155.758L45.3298 195.784L23.4526 227.361L16.5732 255.468H133.907Z" fill="#808080" stroke="#39515E" stroke-linecap="round" stroke-linejoin="round"/>
<path d="M232.395 255.468L217.911 223.708L241.511 239.432V214.268L227.64 197.837L229.693 179.352L208.63 139.297L207.58 125.432L200.394 118.753L163.507 121.42L160.876 108.47L137.276 95.1178L123.116 129.403L110.071 135.173L119.263 147.775L117.776 157.764L120.85 173.187L69.5199 184.485C69.5199 184.485 69.0066 209.135 69.0066 211.189C69.0066 213.242 58.7347 225.054 58.7347 225.054L58.2568 255.468H232.395Z" fill="#ABABAB" stroke="#39515E" stroke-linecap="round" stroke-linejoin="round"/>
<path d="M260.981 255.468L254.851 252.784L247.145 236.352L237.9 229.679L233.794 219.921L229.687 212.215L207.739 201.495L211.144 255.468H260.981Z" fill="#CCCCCC" stroke="#39515E" stroke-linecap="round" stroke-linejoin="round"/>
<path d="M31.259 255.403H58.6999L59.1955 239.432L56.629 230.192V205.542L50.4694 204.516L45.3305 210.162L37.1177 214.788L19.3174 255.468H31.259V255.403Z" fill="#CCCCCC" stroke="#39515E" stroke-linecap="round" stroke-linejoin="round"/>
<path d="M40.751 228.664L41.3528 226.104" stroke="#39515E" stroke-miterlimit="10"/>
<path d="M31.2588 255.468L34.9168 241.019L38.3683 238.824L40.3861 230.222" stroke="#39515E" stroke-miterlimit="10"/>
<path d="M25.335 255.622L31.1465 239.137" stroke="#39515E" stroke-miterlimit="10"/>
<path d="M50.5518 211.336L49.9854 214.015" stroke="#39515E" stroke-miterlimit="10"/>
<path d="M51.8668 205.07L50.793 210.186" stroke="#39515E" stroke-miterlimit="10"/>
<path d="M58.6992 255.403L59.1948 239.432L56.6283 230.193V205.542L51.4953 238.405L46.8697 239.945L45.3298 249.191L44.374 255.403H58.6992Z" fill="white" stroke="#39515E" stroke-linecap="round" stroke-linejoin="round"/>
<path d="M146.58 237.19C149.499 236.795 152.353 236.017 155.07 234.877C157.238 233.993 159.147 232.571 160.616 230.747C160.787 230.517 160.946 230.275 161.1 230.033L157.046 211.743L149.052 204.769L147.718 198.787L140.048 192.804L137.393 202.114L133.069 208.097L132.738 230.039L136.868 237.933C140.119 237.906 143.363 237.657 146.58 237.19Z" fill="white" stroke="#39515E" stroke-linecap="round" stroke-linejoin="round"/>
<path d="M146.58 237.19L145.766 230.358L148.167 223.885V220.05L147.683 214.056" stroke="#39515E" stroke-miterlimit="10"/>
<path d="M151.447 216.422L152.722 223.644L155.117 224.121L154.639 230.116L155.595 233.237" stroke="#39515E" stroke-miterlimit="10"/>
<path d="M150.562 211.419L150.986 213.826" stroke="#39515E" stroke-miterlimit="10"/>
<path d="M142.65 196.073L144.568 215.732" stroke="#39515E" stroke-miterlimit="10"/>
<path d="M119.228 236.7C124.744 237.539 130.316 237.953 135.895 237.939C137.016 237.939 138.114 237.91 139.193 237.868L139.075 231.697L137.081 229.042V210.091L140.409 206.764L140.072 192.81L136.084 200.126L130.774 204.775L127.446 214.416L122.136 220.735L120.803 227.384L114.49 232.694L111.971 235.379C114.35 235.886 116.769 236.326 119.228 236.7Z" fill="#CCCCCC" stroke="#39515E" stroke-linecap="round" stroke-linejoin="round"/>
<path d="M215.309 255.468L243.187 255.415L207.09 233.786L198.364 212.729L191.172 211.702L185.013 203.489L181.927 206.569L183.98 224.54L176.281 237.379V245.597L172.688 254.837L190.057 255.468H215.309Z" fill="white" stroke="#39515E" stroke-linecap="round" stroke-linejoin="round"/>
<path d="M201.326 255.433L200.011 248.087L202.082 243.751L201.515 235.272L203.214 236.972L214.708 255.433H201.326Z" fill="#CCCCCC" stroke="#39515E" stroke-linecap="round" stroke-linejoin="round"/>
<path d="M201.515 235.272L209.621 239.231L212.819 243.184L222.053 247.898L228.46 251.857L232.395 255.468L214.707 255.433L201.515 235.272Z" fill="white" stroke="#39515E" stroke-linecap="round" stroke-linejoin="round"/>
<path d="M176.281 237.379V245.597L172.41 255.303L187.072 255.492L183.98 237.892L190.146 232.246L181.927 206.569L183.98 224.54L176.281 237.379Z" fill="#CCCCCC" stroke="#39515E" stroke-linecap="round" stroke-linejoin="round"/>
<path d="M191.172 211.702L196.594 223.166L198.989 223.408L200.907 229.16" stroke="#39515E" stroke-miterlimit="10"/>
<path d="M194.812 246.382L195.639 249.061" stroke="#39515E" stroke-miterlimit="10"/>
<path d="M191.561 225.561L193.236 232.039L196.115 236.83L192.758 239.709L194.21 244.423" stroke="#39515E" stroke-miterlimit="10"/>
<path d="M123.056 93.8376L111.02 107L110.607 82.8695L122.59 68.3201L123.056 93.8376Z" fill="#CCCCCC" stroke="#39515E" stroke-linecap="round" stroke-linejoin="round"/>
<path d="M114.702 146.536L127.01 135.675C127.893 134.909 128.875 134.266 129.93 133.763C131.254 133.135 132.638 132.641 134.06 132.288C135.883 131.844 137.737 131.537 139.606 131.368C141.959 131.151 144.323 131.064 146.686 131.108C152.399 131.184 158.099 131.686 163.737 132.612C168.423 133.388 173.056 134.458 177.608 135.816C181.703 137.037 185.278 138.347 188.364 139.557C191.449 140.766 193.998 141.875 196.063 142.69L180.092 153.044C178.139 152.277 175.714 151.233 172.805 150.094C169.897 148.955 166.504 147.734 162.628 146.554C158.322 145.275 153.939 144.272 149.506 143.551C144.168 142.683 138.772 142.218 133.364 142.159C131.123 142.12 128.881 142.207 126.65 142.418C124.882 142.581 123.129 142.875 121.405 143.297C120.048 143.63 118.73 144.101 117.469 144.702C116.468 145.186 115.538 145.803 114.702 146.536Z" fill="#CCCCCC" stroke="#39515E" stroke-linecap="round" stroke-linejoin="round"/>
<path d="M153.891 235.355L140.002 240.665C141.216 240.214 142.378 239.636 143.471 238.942C144.439 238.325 145.31 237.567 146.055 236.694C146.759 235.867 147.303 234.917 147.66 233.892C148.028 232.8 148.2 231.651 148.168 230.499C148.158 228.489 147.541 226.53 146.398 224.877C144.932 222.932 143.059 221.332 140.911 220.186C137.816 218.496 134.563 217.112 131.199 216.056C127.187 214.705 122.349 213.372 116.656 211.985C108.901 210.179 101.308 207.74 93.9525 204.693C87.3095 201.97 81.0735 198.345 75.4206 193.919C70.2288 189.863 65.9524 184.757 62.8713 178.933C59.7473 172.745 58.13 165.906 58.1513 158.974C58.1218 156.158 58.3191 153.344 58.7413 150.56C59.1444 147.884 59.7761 145.247 60.6293 142.678C61.4695 140.161 62.5297 137.722 63.7976 135.391C65.0752 133.058 66.5539 130.841 68.2167 128.766L77.7806 116.771C74.2537 121.159 71.5403 126.142 69.7684 131.485C68.8565 134.201 68.1814 136.99 67.7506 139.822C67.3134 142.771 67.1161 145.75 67.1606 148.731C67.1559 156.08 68.8841 163.327 72.2051 169.883C75.4727 176.056 80.004 181.472 85.5037 185.777C91.0969 190.279 97.7462 194.037 105.139 197.182C112.922 200.418 120.957 203.011 129.164 204.935C135.211 206.41 140.303 207.831 144.545 209.265C148.106 210.397 151.547 211.877 154.817 213.684C157.46 215.224 159.354 216.853 160.605 218.646C161.824 220.393 162.484 222.469 162.499 224.599C162.538 225.819 162.358 227.036 161.968 228.192C161.592 229.271 161.02 230.271 160.28 231.142C159.492 232.06 158.571 232.855 157.549 233.502C156.398 234.247 155.172 234.868 153.891 235.355Z" fill="#CCCCCC" stroke="#39515E" stroke-linecap="round" stroke-linejoin="round"/>
<path d="M85.5034 185.777C91.0966 190.279 97.7459 194.037 105.139 197.182C112.922 200.418 120.957 203.011 129.163 204.935C135.211 206.41 140.303 207.832 144.545 209.265C148.106 210.397 151.546 211.877 154.817 213.684C157.46 215.224 159.354 216.853 160.604 218.646C161.824 220.393 162.484 222.469 162.498 224.599C162.596 226.81 161.925 228.987 160.599 230.759C159.13 232.583 157.221 234.004 155.053 234.889C152.342 236.027 149.493 236.805 146.58 237.202C143.042 237.714 139.47 237.964 135.895 237.951C130.316 237.965 124.744 237.55 119.228 236.712C113.931 235.909 108.688 234.784 103.528 233.343C98.5129 231.945 93.7398 230.328 89.2912 228.623C84.8426 226.918 80.7126 225.083 76.9897 223.313L69.4495 255.35H204.967C209.189 250.647 212.493 245.193 214.707 239.273C217.028 232.964 218.106 226.267 217.882 219.549C217.681 212.369 216.59 205.979 214.448 200.25C212.317 194.523 209 189.312 204.713 184.957C200.306 180.438 194.683 176.455 187.685 172.904C180.688 169.352 172.263 166.207 162.315 163.369C155.912 161.505 150.313 159.715 145.518 158C141.424 156.583 137.431 154.892 133.565 152.938C130.379 151.268 127.989 149.61 126.396 147.911C124.803 146.212 123.989 144.483 123.954 142.666C123.909 141.18 124.229 139.705 124.886 138.371C125.705 136.82 126.928 135.519 128.426 134.607C130.578 133.31 132.949 132.42 135.423 131.981C139.151 131.284 142.943 130.989 146.734 131.102C152.447 131.178 158.146 131.681 163.785 132.606C168.471 133.382 173.104 134.452 177.655 135.81C181.75 137.032 185.325 138.341 188.411 139.551C191.497 140.76 194.046 141.869 196.111 142.684L204.89 103.154C202.129 101.974 199.161 100.794 195.91 99.6727C192.659 98.5517 189.119 97.5015 185.231 96.5516C181.343 95.6017 177.095 94.7816 172.422 94.0677C167.749 93.3538 162.634 92.8464 157.029 92.516L156.516 69.1402L122.62 68.3201L123.086 93.8376C114.843 94.975 106.8 97.2608 99.1914 100.628C92.6397 103.523 86.6591 107.568 81.5327 112.57C76.8423 117.202 73.1551 122.748 70.7003 128.866C68.224 135.19 67.021 141.941 67.1603 148.731C67.1555 156.08 68.8838 163.327 72.2048 169.883C75.4724 176.056 80.0036 181.472 85.5034 185.777Z" fill="white" stroke="#39515E" stroke-linecap="round" stroke-linejoin="round"/>
<path d="M69.4495 255.35L76.9897 223.295L67.3314 229.337L61.1836 255.35H69.4495Z" fill="#CCCCCC" stroke="#39515E" stroke-linecap="round" stroke-linejoin="round"/>
<path d="M232.448 247.615C231.854 247.503 231.24 247.624 230.731 247.951L233.375 249.539C233.445 249.352 233.477 249.153 233.468 248.953C233.459 248.754 233.41 248.558 233.323 248.379C233.237 248.199 233.114 248.038 232.964 247.907C232.814 247.776 232.638 247.677 232.448 247.615Z" fill="#263238"/>
<path d="M233.192 226.729C233.192 226.729 233.546 225.242 233.558 225.148C233.676 224.033 233.245 221.803 232.095 221.289C231.901 221.21 231.693 221.172 231.484 221.179C231.275 221.185 231.069 221.236 230.881 221.327C230.693 221.418 230.526 221.548 230.392 221.709C230.257 221.869 230.158 222.056 230.1 222.257C229.823 223.101 230.242 224.109 230.72 224.8C231.286 225.614 233.192 226.723 233.192 226.729Z" fill="#263238"/>
<path d="M250.685 235.803C251.404 234.936 252.272 232.853 251.593 231.78C251.476 231.606 251.324 231.459 251.146 231.349C250.969 231.238 250.769 231.167 250.562 231.139C250.355 231.111 250.144 231.127 249.943 231.187C249.743 231.247 249.557 231.348 249.398 231.485C249.079 231.806 248.835 232.193 248.682 232.619C248.529 233.045 248.471 233.5 248.513 233.951C248.513 234.936 249.51 236.901 249.516 236.901C249.522 236.901 250.649 235.88 250.685 235.803Z" fill="#263238"/>
<path d="M226.377 244.004C227.21 244.537 228.122 244.935 229.079 245.184C229.003 245.621 228.926 246.057 228.831 246.476C228.831 246.583 228.778 246.689 228.755 246.801L229.309 247.131C229.345 246.96 229.38 246.783 229.421 246.612C229.557 245.922 229.669 245.22 229.758 244.512C230.704 244.861 231.7 245.06 232.708 245.102C233.163 245.09 233.611 244.978 234.019 244.774C234.427 244.57 234.785 244.279 235.068 243.922C235.181 243.745 235.256 243.546 235.287 243.339C235.319 243.131 235.306 242.919 235.251 242.717C235.195 242.514 235.098 242.326 234.964 242.163C234.831 242.001 234.665 241.868 234.478 241.774C233.339 241.237 231.368 242.364 230.596 243.184C230.548 243.237 230.065 243.886 229.805 244.252C229.858 243.821 229.911 243.397 229.952 242.96C230.065 241.709 230.141 240.435 230.218 239.166C230.218 238.783 230.271 238.393 230.301 237.986C230.466 238.045 232.401 238.694 233.345 238.576C234.177 238.488 235.221 238.146 235.705 237.396C235.818 237.22 235.893 237.022 235.924 236.814C235.956 236.607 235.943 236.396 235.888 236.194C235.832 235.992 235.734 235.804 235.601 235.642C235.468 235.48 235.302 235.348 235.115 235.255C233.976 234.718 232.006 235.845 231.233 236.665C231.18 236.73 230.478 237.668 230.312 237.91C230.371 237.06 230.442 236.21 230.542 235.373C230.669 234.246 230.866 233.129 231.132 232.027C231.209 232.027 233.233 232.741 234.195 232.617C235.032 232.529 236.071 232.187 236.555 231.437C236.668 231.261 236.742 231.063 236.774 230.855C236.805 230.648 236.793 230.437 236.737 230.235C236.682 230.033 236.584 229.845 236.451 229.683C236.318 229.521 236.152 229.389 235.965 229.296C234.826 228.753 232.855 229.886 232.088 230.706C232.023 230.771 231.274 231.779 231.15 231.968C231.15 231.903 231.18 231.838 231.197 231.774C231.506 230.678 231.911 229.612 232.407 228.588C232.672 227.998 232.961 227.484 233.251 226.977C233.616 227.142 235.286 227.885 236.159 227.891C237.032 227.897 238.071 227.673 238.614 226.965C238.746 226.803 238.844 226.615 238.899 226.413C238.954 226.211 238.966 226 238.935 225.793C238.903 225.586 238.828 225.388 238.715 225.212C238.602 225.035 238.452 224.885 238.277 224.77C237.209 224.109 235.127 225.018 234.271 225.75C234.224 225.791 233.793 226.245 233.487 226.582C233.622 226.351 233.758 226.115 233.894 225.897C234.395 225.089 234.903 224.381 235.357 223.75C235.616 223.396 235.858 223.083 236.088 222.788C237.107 222.768 238.116 222.591 239.08 222.263C239.823 221.879 240.673 221.183 240.85 220.31C240.889 220.107 240.886 219.898 240.841 219.697C240.796 219.495 240.709 219.305 240.586 219.138C240.464 218.972 240.308 218.833 240.129 218.73C239.95 218.627 239.751 218.562 239.546 218.54C238.289 218.451 236.861 220.215 236.437 221.254C236.401 221.348 235.988 222.817 236.012 222.817H236.041C235.811 223.095 235.569 223.407 235.316 223.726C234.844 224.345 234.318 225.048 233.799 225.85C233.233 226.709 232.715 227.6 232.248 228.517C231.72 229.544 231.286 230.616 230.95 231.72C230.95 231.72 230.95 231.75 230.95 231.762C230.95 231.39 230.896 230.363 230.885 230.281C230.702 229.172 229.705 227.136 228.454 226.947C228.246 226.923 228.036 226.942 227.836 227.003C227.636 227.065 227.451 227.167 227.293 227.305C227.135 227.442 227.008 227.611 226.919 227.8C226.831 227.99 226.783 228.196 226.778 228.405C226.737 229.296 227.41 230.175 228.053 230.7C228.784 231.29 230.761 231.88 230.92 231.88C230.607 233.011 230.368 234.162 230.206 235.325C230.106 236.004 230.029 236.688 229.964 237.379C229.964 237.06 229.929 236.789 229.923 236.735C229.74 235.626 228.743 233.585 227.492 233.402C227.285 233.376 227.074 233.395 226.874 233.456C226.674 233.517 226.489 233.62 226.331 233.757C226.174 233.895 226.047 234.064 225.959 234.254C225.872 234.444 225.825 234.65 225.822 234.859C225.781 235.744 226.454 236.629 227.097 237.148C227.957 237.681 228.895 238.079 229.876 238.328C229.876 238.588 229.823 238.854 229.805 239.119C229.693 240.388 229.593 241.65 229.451 242.889C229.404 243.326 229.339 243.756 229.274 244.181C229.274 243.898 229.274 243.662 229.274 243.627C229.091 242.517 228.094 240.482 226.843 240.293C226.636 240.267 226.425 240.286 226.225 240.347C226.025 240.408 225.84 240.511 225.682 240.648C225.525 240.786 225.398 240.955 225.31 241.145C225.223 241.335 225.176 241.541 225.173 241.75C225.061 242.6 225.734 243.467 226.377 244.004Z" fill="#263238"/>
<path d="M259.328 233.55C258.331 232.777 256.166 233.461 255.239 234.098C255.157 234.151 254 235.154 254.024 235.166C253.682 235.266 253.316 235.384 252.915 235.52C252.183 235.78 251.357 236.075 250.484 236.458C249.534 236.857 248.61 237.314 247.717 237.827C246.711 238.392 245.757 239.046 244.867 239.78L244.838 239.809C245.032 239.497 245.563 238.629 245.593 238.541C246.053 237.514 246.342 235.261 245.404 234.411C245.245 234.275 245.06 234.175 244.859 234.116C244.659 234.057 244.448 234.04 244.241 234.068C244.034 234.096 243.835 234.167 243.657 234.277C243.479 234.387 243.327 234.533 243.209 234.706C242.684 235.42 242.767 236.511 243.003 237.32C243.28 238.228 244.625 239.774 244.738 239.898C243.848 240.664 243.014 241.492 242.242 242.376C241.782 242.889 241.339 243.414 240.903 243.951C241.068 243.68 241.209 243.432 241.227 243.397C241.687 242.37 241.976 240.116 241.038 239.267C240.879 239.131 240.694 239.03 240.493 238.971C240.293 238.912 240.082 238.896 239.875 238.924C239.668 238.952 239.469 239.023 239.291 239.133C239.113 239.243 238.961 239.389 238.843 239.562C238.318 240.276 238.401 241.373 238.643 242.175C239.067 243.092 239.63 243.938 240.313 244.683L239.817 245.273C239.026 246.276 238.242 247.273 237.457 248.223C237.18 248.559 236.867 248.884 236.601 249.202L236.879 248.719C237.339 247.698 237.628 245.444 236.69 244.589C236.531 244.453 236.345 244.352 236.145 244.293C235.944 244.234 235.734 244.218 235.527 244.246C235.32 244.274 235.121 244.345 234.943 244.455C234.765 244.565 234.613 244.711 234.495 244.884C233.97 245.597 234.053 246.689 234.295 247.497C234.689 248.426 235.231 249.285 235.899 250.04L235.309 250.677L235.829 250.99C236.188 250.618 236.537 250.229 236.885 249.81C237.484 250.616 238.205 251.324 239.02 251.91C239.407 252.147 239.841 252.296 240.292 252.347C240.742 252.398 241.198 252.349 241.628 252.205C241.82 252.123 241.992 252 242.134 251.846C242.275 251.692 242.382 251.51 242.448 251.312C242.515 251.114 242.538 250.904 242.518 250.696C242.498 250.488 242.434 250.287 242.33 250.105C241.675 249.025 239.38 248.884 238.318 249.143C238.248 249.143 237.486 249.432 237.068 249.592C237.345 249.261 237.628 248.937 237.899 248.595C238.684 247.615 239.451 246.595 240.218 245.58L240.926 244.659C241.032 244.795 242.295 246.429 243.133 246.842C243.519 247.077 243.952 247.226 244.401 247.276C244.85 247.327 245.305 247.28 245.735 247.137C245.926 247.054 246.099 246.932 246.24 246.778C246.381 246.624 246.489 246.442 246.555 246.244C246.621 246.046 246.645 245.836 246.624 245.628C246.604 245.42 246.54 245.218 246.437 245.037C245.788 243.957 243.522 243.81 242.425 244.069C242.342 244.069 241.245 244.488 240.973 244.6C241.493 243.922 242.018 243.255 242.566 242.612C243.297 241.742 244.085 240.922 244.926 240.158C244.973 240.222 246.277 241.928 247.139 242.358C247.882 242.748 248.938 243.037 249.741 242.653C249.933 242.571 250.106 242.449 250.248 242.295C250.39 242.142 250.498 241.96 250.564 241.761C250.631 241.563 250.655 241.353 250.636 241.145C250.616 240.937 250.552 240.735 250.449 240.553C249.794 239.473 247.528 239.332 246.437 239.585C246.348 239.585 245.168 240.034 244.956 240.128L245.103 239.986C245.965 239.243 246.891 238.578 247.87 237.998C248.407 237.668 248.938 237.408 249.463 237.125C249.676 237.461 250.643 239.001 251.387 239.485C252.13 239.969 253.104 240.352 253.941 240.075C254.141 240.013 254.326 239.91 254.483 239.773C254.64 239.635 254.767 239.466 254.855 239.276C254.943 239.087 254.99 238.881 254.993 238.672C254.996 238.463 254.956 238.255 254.874 238.063C254.343 236.918 252.107 236.529 250.991 236.665C250.927 236.665 250.319 236.818 249.876 236.93C250.118 236.812 250.36 236.688 250.59 236.582C251.458 236.181 252.272 235.868 252.997 235.597L254.142 235.202C255.002 235.743 255.939 236.151 256.921 236.411C257.367 236.492 257.825 236.474 258.263 236.359C258.702 236.244 259.109 236.034 259.458 235.744C259.603 235.597 259.716 235.42 259.789 235.226C259.862 235.032 259.893 234.825 259.881 234.618C259.869 234.411 259.813 234.209 259.718 234.025C259.623 233.841 259.49 233.679 259.328 233.55Z" fill="#263238"/>
<path d="M229.245 255.445L229.924 255.863L230.343 255.557L230.502 255.439L229.245 255.445Z" fill="#263238"/>
<path d="M33.7719 216.41C33.5968 216.524 33.4475 216.673 33.3337 216.848C33.2199 217.024 33.1441 217.221 33.1113 217.427C33.0785 217.633 33.0893 217.844 33.1432 218.046C33.197 218.248 33.2926 218.436 33.4238 218.599C33.8456 219.087 34.4352 219.398 35.0758 219.472L36.3443 216.575C35.4534 216.174 34.4268 215.985 33.7719 216.41Z" fill="#263238"/>
<path d="M39.6422 212.605C39.2432 212.903 38.9597 213.33 38.8398 213.814L41.0641 212.569C40.8451 212.449 40.5982 212.389 40.3484 212.395C40.0987 212.402 39.8551 212.474 39.6422 212.605Z" fill="#263238"/>
<path d="M40.02 191.518C40.7752 192.155 42.9051 192.733 42.9051 192.733C42.9051 192.733 42.8638 191.211 42.8461 191.117C42.6691 190.008 41.6661 187.966 40.433 187.771C40.2253 187.744 40.0141 187.761 39.8134 187.821C39.6127 187.881 39.427 187.983 39.2686 188.12C39.1103 188.257 38.9828 188.426 38.8947 188.617C38.8066 188.807 38.7598 189.013 38.7574 189.223C38.7338 190.108 39.43 190.975 40.02 191.518Z" fill="#263238"/>
<path d="M24.4851 198.209C24.4851 198.209 23.606 196.964 23.5411 196.893C22.7859 196.067 20.8271 194.91 19.6825 195.436C19.4952 195.528 19.3296 195.66 19.1965 195.821C19.0634 195.982 18.9658 196.17 18.9101 196.372C18.8544 196.573 18.8419 196.784 18.8733 196.991C18.9048 197.198 18.9794 197.395 19.0925 197.571C19.5409 198.338 20.5734 198.692 21.4112 198.793C22.3847 198.905 24.4851 198.214 24.4851 198.209Z" fill="#263238"/>
<path d="M23.3758 193.5C23.4348 193.854 23.4997 194.232 23.5764 194.645C23.7298 195.406 23.9068 196.261 24.1664 197.182C24.4293 198.184 24.7524 199.169 25.134 200.132C25.5553 201.206 26.0706 202.24 26.6739 203.223V203.259C26.3966 203.023 25.5883 202.374 25.4939 202.333C24.544 201.743 22.3492 201.153 21.3639 201.943C21.2077 202.083 21.0826 202.254 20.997 202.445C20.9114 202.636 20.8672 202.843 20.8672 203.052C20.8672 203.262 20.9114 203.469 20.997 203.66C21.0826 203.851 21.2077 204.022 21.3639 204.162C22.0011 204.781 23.0926 204.852 23.9245 204.752C24.8626 204.61 26.5795 203.483 26.7152 203.395C27.3586 204.379 28.0641 205.321 28.8274 206.215C29.2699 206.734 29.7301 207.247 30.2021 207.755L29.6947 207.353C28.7448 206.763 26.55 206.173 25.5647 206.97C25.4093 207.11 25.285 207.281 25.1999 207.472C25.1149 207.663 25.0709 207.87 25.0709 208.079C25.0709 208.288 25.1149 208.495 25.1999 208.686C25.285 208.877 25.4093 209.048 25.5647 209.188C25.925 209.463 26.3408 209.655 26.7831 209.752C27.2253 209.848 27.6834 209.847 28.1253 209.749C29.0927 209.454 30.0098 209.015 30.8452 208.445C31.0281 208.634 31.2051 208.828 31.388 209.035C32.2671 209.955 33.158 210.87 33.984 211.796C34.279 212.121 34.574 212.451 34.8395 212.781L34.397 212.439C33.4471 211.849 31.2523 211.259 30.267 212.05C30.1116 212.19 29.9873 212.361 29.9022 212.552C29.8172 212.743 29.7732 212.95 29.7732 213.159C29.7732 213.368 29.8172 213.575 29.9022 213.766C29.9873 213.957 30.1116 214.128 30.267 214.268C30.9042 214.888 32.0016 214.959 32.8276 214.858C33.7705 214.577 34.6641 214.151 35.4767 213.596C35.754 213.938 36.0313 214.286 36.285 214.64C36.4502 214.882 36.6272 215.1 36.7806 215.354V215.389L37.0048 214.882L37.1346 214.805L36.7511 214.286C36.3263 213.725 35.872 213.177 35.4 212.64C36.2746 212.155 37.0703 211.541 37.76 210.817C38.0474 210.466 38.2548 210.057 38.3679 209.618C38.481 209.178 38.497 208.72 38.4149 208.274C38.3592 208.073 38.2618 207.885 38.1289 207.724C37.996 207.563 37.8307 207.432 37.6436 207.339C37.4566 207.246 37.2521 207.193 37.0434 207.185C36.8347 207.176 36.6266 207.211 36.4325 207.289C35.2525 207.784 34.8159 210.008 34.9221 211.124C34.9221 211.194 35.0932 211.991 35.1935 212.427C34.9044 212.103 34.6035 211.778 34.3262 211.46C33.4589 210.545 32.5562 209.649 31.6594 208.746L30.8452 207.92C30.9927 207.831 32.7627 206.811 33.3114 206.038C33.6357 205.693 33.877 205.279 34.0171 204.827C34.1572 204.375 34.1923 203.897 34.1197 203.43C34.0639 203.229 33.9664 203.041 33.8336 202.88C33.7009 202.719 33.5357 202.587 33.3488 202.494C33.162 202.4 32.9576 202.347 32.7489 202.338C32.5402 202.328 32.3319 202.363 32.1373 202.439C30.9573 202.934 30.5207 205.159 30.6269 206.28C30.6269 206.362 30.8688 207.507 30.9455 207.796C30.3555 207.206 29.7655 206.569 29.1755 205.943C28.4172 205.098 27.7155 204.203 27.0751 203.265C27.1459 203.223 28.9985 202.161 29.559 201.377C29.8462 201.027 30.0536 200.619 30.1667 200.181C30.2799 199.742 30.296 199.285 30.2139 198.84C30.161 198.635 30.0651 198.444 29.9327 198.279C29.8002 198.114 29.6342 197.979 29.4456 197.883C29.2571 197.787 29.0502 197.732 28.8389 197.722C28.6275 197.712 28.4165 197.747 28.2197 197.825C27.0397 198.321 26.6031 200.545 26.7093 201.666C26.7093 201.754 26.9748 202.982 27.0338 203.2L26.9158 203.041C26.2998 202.082 25.7687 201.071 25.3287 200.02C25.0809 199.43 24.8744 198.875 24.6856 198.321C25.633 197.934 26.5147 197.402 27.2993 196.745C27.6217 196.429 27.8711 196.046 28.0301 195.623C28.1891 195.2 28.2538 194.747 28.2197 194.297C28.1836 194.092 28.1052 193.898 27.9895 193.725C27.8739 193.553 27.7235 193.406 27.5481 193.295C27.3726 193.184 27.1759 193.111 26.9705 193.08C26.7651 193.049 26.5556 193.062 26.3553 193.117C25.1753 193.483 24.4555 195.642 24.4319 196.769C24.4319 196.828 24.4909 197.453 24.5381 197.908C24.4614 197.654 24.3729 197.394 24.2962 197.152C24.0189 196.244 23.8242 195.382 23.659 194.633C23.5646 194.202 23.4879 193.813 23.423 193.453C24.0807 192.676 24.6141 191.803 25.0042 190.863C25.1476 190.434 25.1949 189.978 25.1429 189.529C25.0909 189.079 24.9409 188.646 24.7033 188.261C24.579 188.093 24.4206 187.953 24.2384 187.85C24.0562 187.747 23.8544 187.684 23.6462 187.664C23.4379 187.645 23.2279 187.67 23.0298 187.737C22.8317 187.804 22.6501 187.912 22.4967 188.055C21.594 188.934 21.9657 191.17 22.4967 192.185C22.5321 192.22 23.364 193.518 23.3758 193.5Z" fill="#263238"/>
<path d="M38.9525 197.872C39.8139 198.267 41.8671 198.279 42.0323 198.285C42.0196 199.468 42.0866 200.651 42.2329 201.825C42.3155 202.504 42.4217 203.188 42.5338 203.867C42.4335 203.566 42.345 203.277 42.3273 203.277C41.8671 202.25 40.3685 200.545 39.1177 200.687C38.9105 200.716 38.7118 200.788 38.5345 200.899C38.3572 201.01 38.2051 201.157 38.0883 201.331C37.9715 201.505 37.8925 201.701 37.8563 201.907C37.8202 202.113 37.8279 202.324 37.8787 202.527C38.0675 203.395 38.9407 204.055 39.7077 204.409C40.6756 204.7 41.6826 204.84 42.6931 204.822C42.7403 205.082 42.7816 205.342 42.8288 205.601C43.053 206.858 43.2831 208.103 43.4719 209.336C43.5368 209.773 43.584 210.203 43.6371 210.634L43.4601 210.103C42.994 209.076 41.4954 207.371 40.2446 207.513C40.0401 207.542 39.844 207.614 39.6688 207.724C39.4937 207.834 39.3433 207.978 39.2273 208.149C39.1112 208.32 39.0321 208.514 38.995 208.717C38.9578 208.92 38.9635 209.129 39.0115 209.33C39.2003 210.197 40.0735 210.858 40.8346 211.212C41.4838 211.44 42.1646 211.566 42.8524 211.584L44.2271 210.811L45.3127 210.221L48.2804 206.97C48.2132 206.945 48.1442 206.925 48.0739 206.911C46.8349 206.687 45.2242 208.286 44.6932 209.271C44.6932 209.336 44.3628 210.091 44.2035 210.504C44.1445 210.079 44.0855 209.655 44.0088 209.224C43.7964 207.985 43.5368 206.74 43.289 205.489C43.2064 205.111 43.1356 204.728 43.0648 204.344C43.2359 204.344 45.2773 204.48 46.1564 204.144C46.9411 203.843 47.8615 203.241 48.1034 202.374C48.1643 202.175 48.1828 201.966 48.1577 201.759C48.1326 201.553 48.0645 201.354 47.9578 201.175C47.851 200.997 47.708 200.843 47.5379 200.723C47.3679 200.603 47.1746 200.52 46.9706 200.48C45.7316 200.256 44.1268 201.855 43.5958 202.84C43.5545 202.917 43.1238 204.02 43.0058 204.286C42.8465 203.442 42.6931 202.604 42.5751 201.772C42.4083 200.649 42.3156 199.515 42.2978 198.38C42.3804 198.38 44.5103 198.521 45.413 198.179C45.8468 198.044 46.2458 197.815 46.5821 197.509C46.9184 197.203 47.1839 196.828 47.36 196.409C47.425 196.21 47.4473 196 47.4256 195.792C47.4038 195.584 47.3385 195.383 47.2338 195.202C47.1292 195.021 46.9875 194.865 46.8181 194.742C46.6487 194.62 46.4554 194.534 46.2508 194.492C45.0118 194.261 43.4011 195.866 42.8701 196.852C42.8288 196.928 42.3686 198.096 42.2801 198.315C42.2801 198.25 42.2801 198.179 42.2801 198.114C42.2977 196.976 42.4122 195.841 42.6223 194.722C42.7344 194.102 42.876 193.542 43.0235 192.952C43.4188 193.016 45.2242 193.3 46.0679 193.076C46.9116 192.851 47.8379 192.367 48.1978 191.547C48.2836 191.357 48.3284 191.151 48.3294 190.942C48.3304 190.733 48.2875 190.526 48.2035 190.335C48.1196 190.143 47.9964 189.972 47.8419 189.831C47.6875 189.69 47.5052 189.584 47.3069 189.518C46.1269 189.158 44.3569 190.574 43.6902 191.5C43.6548 191.547 43.3598 192.09 43.1474 192.503C43.2182 192.25 43.289 191.984 43.3598 191.742C43.6371 190.833 43.9498 190.013 44.2153 189.288C44.3805 188.881 44.5339 188.515 44.6755 188.173C45.1003 188.031 46.7877 187.465 47.4249 186.886C48.0621 186.308 48.6875 185.429 48.6049 184.526C48.5935 184.317 48.5383 184.113 48.4428 183.927C48.3474 183.741 48.2138 183.576 48.0508 183.445C47.8877 183.314 47.6989 183.218 47.4966 183.165C47.2942 183.111 47.0829 183.101 46.8762 183.134C45.6372 183.37 44.7168 185.447 44.5752 186.562C44.5752 186.662 44.5752 188.19 44.5752 188.184C44.4277 188.515 44.2743 188.863 44.1091 189.252C43.82 189.972 43.5191 190.786 43.2005 191.695C42.8746 192.672 42.6048 193.667 42.3922 194.674C42.1695 195.81 42.0471 196.963 42.0264 198.12V198.161C41.9261 197.807 41.6075 196.822 41.578 196.751C41.1119 195.725 39.6133 194.02 38.3625 194.161C38.1555 194.19 37.9569 194.263 37.7797 194.374C37.6026 194.485 37.4509 194.632 37.3345 194.806C37.2182 194.98 37.1398 195.176 37.1044 195.382C37.0691 195.588 37.0776 195.799 37.1294 196.002C37.3182 196.857 38.1914 197.53 38.9525 197.872Z" fill="#263238"/>
<path d="M124.52 210.958C124.313 210.988 124.114 211.06 123.937 211.171C123.76 211.282 123.608 211.429 123.492 211.603C123.375 211.777 123.297 211.973 123.262 212.179C123.226 212.385 123.235 212.597 123.287 212.799C123.434 213.227 123.674 213.618 123.989 213.943C124.304 214.268 124.687 214.52 125.11 214.681C125.69 214.89 126.299 215.009 126.915 215.035L127.44 214.41L127.735 213.554C127.269 212.522 125.771 210.817 124.52 210.958Z" fill="#263238"/>
<path d="M118.047 219.873C117.872 219.987 117.723 220.137 117.609 220.312C117.495 220.487 117.419 220.684 117.387 220.89C117.354 221.097 117.365 221.308 117.419 221.509C117.472 221.711 117.568 221.9 117.699 222.062C118.23 222.776 119.304 223.006 120.142 223.006C120.69 222.966 121.229 222.843 121.741 222.64L122.083 220.918L122.047 220.882C121.198 220.145 119.121 219.224 118.047 219.873Z" fill="#263238"/>
<path d="M123.918 216.097C122.956 216.687 122.767 218.587 122.938 219.755L125.764 216.398C125.541 216.138 125.234 215.966 124.896 215.91C124.558 215.855 124.211 215.922 123.918 216.097Z" fill="#263238"/>
<path d="M115.204 211.879C115.387 212.068 115.564 212.262 115.747 212.469C116.626 213.389 117.517 214.304 118.343 215.23C118.638 215.555 118.933 215.885 119.199 216.215L118.756 215.873C117.806 215.283 115.612 214.693 114.626 215.484C114.471 215.624 114.347 215.795 114.261 215.986C114.176 216.177 114.132 216.384 114.132 216.593C114.132 216.802 114.176 217.009 114.261 217.2C114.347 217.391 114.471 217.562 114.626 217.702C115.263 218.322 116.361 218.392 117.187 218.292C118.13 218.01 119.023 217.585 119.836 217.03C120.113 217.378 120.391 217.72 120.644 218.074C120.809 218.316 120.986 218.534 121.14 218.788L121.606 219.519C121.818 219.885 122.037 220.251 122.243 220.611L122.697 220.074C122.52 219.779 122.338 219.484 122.143 219.171L121.659 218.446C121.506 218.204 121.311 217.962 121.134 217.72C120.709 217.13 120.255 216.611 119.783 216.074C120.657 215.589 121.453 214.975 122.143 214.251C122.43 213.9 122.638 213.491 122.751 213.051C122.864 212.612 122.88 212.154 122.798 211.708C122.745 211.508 122.652 211.321 122.523 211.159C122.394 210.997 122.233 210.863 122.05 210.767C121.866 210.671 121.665 210.615 121.459 210.601C121.252 210.587 121.045 210.616 120.851 210.687C119.671 211.183 119.234 213.407 119.34 214.522C119.34 214.593 119.511 215.389 119.612 215.826C119.323 215.501 119.022 215.177 118.744 214.864C117.877 213.95 116.974 213.047 116.078 212.144L115.263 211.318C115.411 211.23 117.181 210.209 117.73 209.436C118.017 209.087 118.225 208.679 118.338 208.24C118.451 207.802 118.467 207.344 118.385 206.899C118.329 206.698 118.231 206.511 118.098 206.349C117.966 206.188 117.801 206.056 117.614 205.963C117.427 205.87 117.222 205.816 117.014 205.807C116.805 205.797 116.597 205.832 116.402 205.908C115.222 206.404 114.786 208.628 114.892 209.749C114.892 209.832 115.134 210.976 115.21 211.265C114.62 210.675 114.03 210.038 113.44 209.413C112.682 208.567 111.98 207.672 111.34 206.734C111.411 206.693 113.263 205.631 113.824 204.846C114.111 204.496 114.318 204.088 114.432 203.65C114.545 203.212 114.561 202.754 114.479 202.309C114.423 202.108 114.325 201.92 114.193 201.759C114.06 201.598 113.895 201.466 113.708 201.373C113.521 201.279 113.317 201.226 113.108 201.217C112.899 201.207 112.691 201.242 112.496 201.318C111.316 201.813 110.88 204.038 110.986 205.159C110.986 205.247 111.251 206.474 111.31 206.693L111.192 206.533C110.576 205.575 110.045 204.564 109.605 203.513C109.358 202.923 109.151 202.368 108.962 201.813C109.908 201.427 110.79 200.897 111.576 200.244C112.136 199.613 112.673 198.663 112.502 197.79C112.466 197.585 112.388 197.39 112.272 197.218C112.156 197.046 112.006 196.899 111.831 196.788C111.655 196.677 111.458 196.604 111.253 196.573C111.048 196.542 110.838 196.555 110.638 196.61C109.458 196.975 108.738 199.141 108.714 200.262C108.714 200.321 108.773 200.946 108.821 201.4C108.744 201.147 108.655 200.887 108.579 200.645C108.301 199.737 108.107 198.875 107.942 198.126C107.847 197.695 107.77 197.306 107.706 196.946C108.363 196.169 108.897 195.296 109.287 194.356C109.43 193.927 109.477 193.471 109.425 193.021C109.373 192.572 109.223 192.139 108.986 191.754C108.862 191.586 108.703 191.446 108.521 191.343C108.339 191.24 108.137 191.177 107.929 191.157C107.72 191.138 107.51 191.163 107.312 191.23C107.114 191.297 106.933 191.405 106.779 191.547C105.877 192.427 106.248 194.669 106.779 195.677C106.826 195.766 107.658 197.046 107.67 197.029C107.729 197.383 107.794 197.76 107.871 198.173C108.024 198.934 108.201 199.79 108.461 200.71C108.724 201.712 109.047 202.697 109.428 203.66C109.851 204.735 110.366 205.772 110.968 206.758C110.971 206.767 110.971 206.778 110.968 206.787C110.691 206.551 109.883 205.902 109.818 205.861C108.868 205.271 106.673 204.681 105.688 205.477C105.532 205.617 105.408 205.787 105.323 205.978C105.238 206.169 105.194 206.375 105.194 206.584C105.194 206.792 105.238 206.999 105.323 207.189C105.408 207.38 105.532 207.55 105.688 207.69C106.325 208.315 107.416 208.38 108.248 208.28C109.186 208.138 110.903 207.011 111.039 206.923C111.682 207.907 112.388 208.849 113.151 209.743C113.594 210.262 114.054 210.776 114.526 211.283L114.019 210.882C113.069 210.292 110.874 209.702 109.889 210.498C109.732 210.638 109.607 210.809 109.522 211C109.436 211.191 109.392 211.398 109.392 211.607C109.392 211.817 109.436 212.024 109.522 212.215C109.607 212.406 109.732 212.577 109.889 212.717C110.52 213.336 111.617 213.407 112.443 213.277C113.431 212.957 114.362 212.486 115.204 211.879Z" fill="#263238"/>
<path d="M124.32 195.011C125.075 195.648 127.205 196.226 127.205 196.226C127.205 196.226 127.163 194.704 127.146 194.609C126.969 193.5 125.966 191.459 124.733 191.264C124.525 191.238 124.314 191.255 124.114 191.316C123.914 191.376 123.728 191.478 123.57 191.615C123.412 191.752 123.285 191.921 123.196 192.111C123.108 192.3 123.06 192.506 123.057 192.716C123.01 193.601 123.677 194.468 124.32 195.011Z" fill="#263238"/>
<path d="M108.76 201.707C108.76 201.707 107.881 200.456 107.816 200.386C107.061 199.56 105.102 198.403 103.958 198.928C103.771 199.021 103.605 199.153 103.472 199.314C103.339 199.475 103.241 199.663 103.186 199.864C103.13 200.066 103.117 200.277 103.149 200.484C103.18 200.69 103.255 200.888 103.368 201.064C103.816 201.831 104.849 202.185 105.687 202.285C106.69 202.398 108.76 201.707 108.76 201.707Z" fill="#263238"/>
<path d="M123.21 201.365C124.071 201.76 126.124 201.778 126.289 201.778C126.278 202.951 126.345 204.124 126.49 205.288C126.573 205.967 126.679 206.651 126.791 207.336C126.691 207.029 126.602 206.746 126.584 206.746C126.124 205.719 124.626 204.014 123.375 204.156C123.168 204.185 122.969 204.257 122.792 204.368C122.614 204.48 122.462 204.627 122.345 204.8C122.229 204.974 122.15 205.17 122.114 205.376C122.077 205.582 122.085 205.793 122.136 205.996C122.325 206.864 123.198 207.525 123.965 207.879C124.933 208.169 125.94 208.309 126.95 208.292C126.997 208.551 127.039 208.811 127.086 209.07C127.31 210.327 127.54 211.578 127.729 212.805C127.729 212.988 127.77 213.171 127.794 213.354L128.166 212.292C127.965 211.194 127.741 210.091 127.523 208.988C127.446 208.61 127.369 208.227 127.298 207.849C128.103 207.897 128.91 207.88 129.711 207.796L130.75 204.793L131.57 204.079C131.462 204.026 131.346 203.988 131.228 203.967C129.989 203.743 128.384 205.342 127.853 206.327C127.812 206.404 127.381 207.507 127.263 207.772C127.104 206.929 126.95 206.091 126.832 205.259C126.665 204.135 126.573 203.002 126.555 201.866C126.638 201.866 128.767 202.008 129.67 201.666C130.104 201.53 130.503 201.302 130.839 200.996C131.176 200.69 131.441 200.315 131.617 199.896C131.682 199.697 131.704 199.487 131.683 199.279C131.661 199.071 131.596 198.87 131.491 198.689C131.386 198.508 131.245 198.351 131.075 198.229C130.906 198.106 130.713 198.021 130.508 197.978C129.269 197.748 127.658 199.353 127.127 200.338C127.086 200.415 126.626 201.583 126.537 201.802C126.537 201.737 126.537 201.672 126.537 201.601C126.555 200.462 126.669 199.328 126.879 198.208C126.992 197.618 127.133 197.028 127.281 196.438C127.676 196.503 129.481 196.787 130.325 196.562C131.169 196.338 132.095 195.854 132.455 195.034C132.541 194.844 132.586 194.637 132.587 194.428C132.588 194.219 132.545 194.013 132.461 193.821C132.377 193.63 132.254 193.459 132.099 193.318C131.945 193.177 131.762 193.07 131.564 193.005C130.384 192.645 128.614 194.061 127.947 194.987C127.912 195.034 127.617 195.577 127.405 195.99C127.475 195.736 127.546 195.471 127.617 195.229C127.894 194.32 128.207 193.5 128.472 192.775C128.638 192.367 128.791 192.002 128.933 191.659C129.357 191.518 131.045 190.951 131.682 190.373C132.319 189.795 132.945 188.916 132.862 188.013C132.851 187.804 132.795 187.6 132.7 187.414C132.605 187.227 132.471 187.063 132.308 186.932C132.145 186.801 131.956 186.705 131.754 186.651C131.551 186.598 131.34 186.587 131.133 186.621C129.894 186.857 128.974 188.934 128.838 190.049C128.838 190.149 128.809 191.677 128.838 191.671C128.691 192.002 128.537 192.35 128.378 192.739C128.083 193.459 127.759 194.273 127.464 195.182C127.138 196.159 126.868 197.154 126.655 198.161C126.415 199.291 126.275 200.44 126.236 201.595V201.66C126.136 201.306 125.817 200.321 125.788 200.25C125.322 199.223 123.823 197.518 122.572 197.66C122.365 197.689 122.167 197.761 121.99 197.872C121.813 197.984 121.661 198.131 121.545 198.305C121.428 198.478 121.35 198.675 121.314 198.881C121.279 199.087 121.288 199.298 121.339 199.501C121.593 200.35 122.466 201.011 123.21 201.365Z" fill="#263238"/>
<path d="M212.678 149.834L210.324 146.914L212.442 145.244L213.864 147.02L213.38 148.147L213.782 149.044L212.95 149.64" fill="white"/>
<path d="M212.678 149.834L210.324 146.914L212.442 145.244L213.864 147.02L213.38 148.147L213.782 149.044L212.95 149.64" stroke="#263238" stroke-linecap="round" stroke-linejoin="round"/>
<path d="M231.77 154.903C231.77 154.903 230.159 153.463 229.558 153.557C228.956 153.652 221.062 154.973 221.062 154.973L213.799 149.044L212.689 149.834L219.64 158.555L227.192 158.083L225.569 166.343L218.696 171.57L229.906 178.267L232.165 171.139L241.092 162.348L237.623 158L231.77 154.903Z" fill="black" stroke="#263238" stroke-linecap="round" stroke-linejoin="round"/>
<path d="M234.071 152.997L232.802 155.664L232.336 155.239L231.445 161.723L237.628 157.976L237.009 156.997L237.151 154.973L234.071 152.997Z" fill="white" stroke="#263238" stroke-linecap="round" stroke-linejoin="round"/>
<path d="M231.445 161.723L235.062 159.528L232.041 157.404L231.445 161.723Z" fill="white" stroke="#263238" stroke-linecap="round" stroke-linejoin="round"/>
<path d="M241.21 146.643C241.21 146.643 243.942 143.445 246.721 145.463C249.499 147.48 248.732 149.451 250.715 148.371C252.697 147.292 256.42 144.548 258.662 148.041C260.904 151.534 259.175 155.192 257.765 156.029C256.355 156.867 256.727 155.268 256.756 154.495C256.786 153.723 254.473 152.725 253.96 154.318C253.447 155.911 250.75 158.366 247.328 158.136C243.906 157.906 243.245 153.699 243.322 151.227C243.317 150.485 243.119 149.757 242.748 149.115C242.377 148.472 241.845 147.938 241.204 147.563L241.21 146.643Z" fill="#263238" stroke="#263238" stroke-linecap="round" stroke-linejoin="round"/>
<path d="M234.661 145.982C234.661 145.982 232.95 149.793 233.304 152.041C233.658 154.289 233.469 156.018 234.614 156.454C235.758 156.891 239.552 154.596 240.39 153.079C241.228 151.563 242.425 149.374 242.095 147.274C241.765 145.173 237.741 142.117 234.661 145.982Z" fill="white" stroke="#263238" stroke-linecap="round" stroke-linejoin="round"/>
<path d="M235.31 149.982C235.221 150.277 235.033 150.477 234.885 150.43C234.738 150.383 234.69 150.112 234.779 149.84C234.867 149.569 235.056 149.345 235.204 149.392C235.351 149.439 235.375 149.687 235.31 149.982Z" fill="#263238"/>
<path d="M238.036 151.115C237.947 151.41 237.752 151.616 237.605 151.569C237.457 151.522 237.41 151.25 237.499 150.979C237.587 150.708 237.782 150.483 237.929 150.525C238.077 150.566 238.124 150.82 238.036 151.115Z" fill="#263238"/>
<path d="M236 150.472C236 150.472 236.177 150.601 235.929 151.062C235.681 151.522 235.086 151.357 235.15 151.752C235.215 152.147 235.965 152.342 235.965 152.342" stroke="#263238" stroke-linecap="round" stroke-linejoin="round"/>
<path d="M234.626 153.026C234.626 153.026 235.576 153.923 236.425 153.705" stroke="#263238" stroke-linecap="round" stroke-linejoin="round"/>
<path d="M238.933 150.171L237.169 149.722" stroke="#263238" stroke-linecap="round" stroke-linejoin="round"/>
<path d="M235.776 149.056L234.933 148.3" stroke="#263238" stroke-linecap="round" stroke-linejoin="round"/>
<path d="M234.661 145.982C234.661 145.982 234.407 146.572 234.112 147.38C235.109 146.861 236.826 146.277 238.396 147.244C239.965 148.212 240.756 150.436 241.074 151.799C241.741 150.448 242.337 148.849 242.095 147.274C241.765 145.173 237.741 142.117 234.661 145.982Z" fill="#263238" stroke="#263238" stroke-linecap="round" stroke-linejoin="round"/>
<path d="M240.667 151.74C240.667 151.74 241.894 150.613 241.847 151.64C241.799 152.666 240.389 153.274 240.077 153.321C239.764 153.368 239.788 152.973 239.788 152.973" fill="white"/>
<path d="M240.667 151.74C240.667 151.74 241.894 150.613 241.847 151.64C241.799 152.666 240.389 153.274 240.077 153.321C239.764 153.368 239.788 152.973 239.788 152.973" stroke="#263238" stroke-linecap="round" stroke-linejoin="round"/>
<path d="M241.087 162.354L239.199 175.812C239.157 176.099 239.016 176.361 238.8 176.555C238.585 176.748 238.308 176.859 238.019 176.868H237.611C237.297 176.88 236.991 176.771 236.755 176.564C236.519 176.356 236.371 176.066 236.343 175.753L235.605 167.658L241.087 162.354Z" fill="black" stroke="#263238" stroke-linecap="round" stroke-linejoin="round"/>
<path d="M237.67 173.965L231.611 168.62L230.254 169.759L236.071 176.491C236.199 176.628 236.356 176.735 236.531 176.802C236.705 176.87 236.893 176.896 237.08 176.88H237.558C237.741 176.872 237.92 176.824 238.083 176.738C238.245 176.653 238.386 176.532 238.495 176.385C238.605 176.238 238.681 176.069 238.716 175.889C238.752 175.709 238.748 175.524 238.703 175.346" fill="black"/>
<path d="M237.67 173.965L231.611 168.62L230.254 169.759L236.071 176.491C236.199 176.628 236.356 176.735 236.531 176.802C236.705 176.87 236.893 176.896 237.08 176.88H237.558C237.741 176.872 237.92 176.824 238.083 176.738C238.245 176.653 238.386 176.532 238.495 176.385C238.605 176.238 238.681 176.069 238.716 175.889C238.752 175.709 238.748 175.524 238.703 175.346V175.346" stroke="#263238" stroke-linecap="round" stroke-linejoin="round"/>
<path d="M231.611 168.614L230.189 166.343L226.991 165.989L227.009 167.894L228.543 169.175L229.516 169.31L230.254 169.753L231.611 168.614Z" fill="white" stroke="#263238" stroke-linecap="round" stroke-linejoin="round"/>
<path d="M214.489 175.7C214.489 175.7 207.81 184.391 208.176 185.83C208.541 187.27 218.3 202.51 218.3 202.51L219.657 201.613L214.294 184.869L225.073 180.579L214.489 175.7Z" fill="white" stroke="#263238" stroke-linecap="round" stroke-linejoin="round"/>
<path d="M219.87 178.921L220.661 182.397L224.23 181.028L219.87 178.921Z" fill="#263238" stroke="#263238" stroke-miterlimit="10"/>
<path d="M218.301 202.48L216.531 205.43C216.531 205.43 215.121 207.542 215.534 207.672C216.436 207.961 218.773 206.427 219.44 205.955C220.106 205.483 220.82 205.17 221.263 204.858C221.705 204.545 222.59 204.362 221.381 203.241C220.974 202.869 219.681 201.583 219.681 201.583L218.301 202.48Z" fill="white" stroke="#263238" stroke-linecap="round" stroke-linejoin="round"/>
<path d="M229.327 172.927C226.32 171.728 223.245 170.709 220.117 169.877C214.707 168.408 210.707 167.269 210.783 168.62C210.86 169.971 220.701 191.736 220.701 191.736L222.389 191.199L219.816 179.199C219.816 179.199 223.946 182.09 226.997 180.656C230.047 179.222 231.209 175.346 230.997 174.024" fill="#263238"/>
<path d="M229.327 172.927C226.32 171.728 223.245 170.709 220.117 169.877C214.707 168.408 210.707 167.269 210.783 168.62C210.86 169.971 220.701 191.736 220.701 191.736L222.389 191.199L219.816 179.199C219.816 179.199 223.946 182.09 226.997 180.656C230.047 179.222 231.209 175.346 230.997 174.024" stroke="#263238" stroke-linecap="round" stroke-linejoin="round"/>
<path d="M218.967 169.564C214.152 168.26 210.707 167.363 210.783 168.62C210.86 169.971 220.701 191.736 220.701 191.736L222.389 191.199L219.816 179.199C220.695 177.057 219.763 172.555 218.967 169.564Z" fill="white" stroke="#263238" stroke-linecap="round" stroke-linejoin="round"/>
<path d="M219.816 179.199L215.574 173.045" stroke="#263238" stroke-linecap="round" stroke-linejoin="round"/>
<path d="M220.702 191.736L219.121 194.716C219.121 194.716 215.929 197.807 216.637 197.967C217.345 198.126 223.345 195.548 223.793 194.934C224.242 194.32 222.389 191.199 222.389 191.199L220.702 191.736Z" fill="white" stroke="#263238" stroke-linecap="round" stroke-linejoin="round"/>
<path d="M213.362 148.395L228.242 166.112" stroke="#263238" stroke-miterlimit="10"/>
<path d="M167.578 93.5248L211.244 145.775" stroke="#263238" stroke-miterlimit="10"/>
<path d="M229.517 169.304V255.444" stroke="#263238" stroke-miterlimit="10"/>
<path d="M87.4144 145.368C87.4144 145.368 90.5532 163.735 87.143 169.558C83.7327 175.381 75.1777 171.192 75.1777 171.192V254.854" stroke="#263238" stroke-miterlimit="10"/>
<path d="M68.5691 152.242C68.5691 152.242 71.348 151.923 71.5604 152.566C71.677 153.093 71.677 153.638 71.5604 154.165C71.5604 154.165 73.1593 155.876 73.1593 157.05C73.1593 158.224 71.4542 158.761 71.4542 158.761L71.1356 161.534L66.864 161.747L66.3271 158.437C66.3271 158.437 64.7223 152.135 68.5691 152.242Z" fill="white" stroke="#263238" stroke-linecap="round" stroke-linejoin="round"/>
<path d="M69.4251 156.82L68.2451 155.109C68.6413 154.465 68.861 153.729 68.8823 152.973C68.8823 151.793 68.7761 149.663 66.3217 149.663C63.8674 149.663 62.2626 151.587 61.7316 155.752C61.2006 159.918 63.6491 161.947 67.1772 161.198C70.7054 160.449 69.4251 156.82 69.4251 156.82Z" fill="#263238" stroke="#263238" stroke-linecap="round" stroke-linejoin="round"/>
<path d="M69.319 156.089C69.319 156.089 67.5018 155.876 67.608 157.269C67.6361 157.568 67.7542 157.852 67.9468 158.082C68.1394 158.313 68.3975 158.48 68.6869 158.561C68.9764 158.642 69.2836 158.634 69.5682 158.537C69.8527 158.44 70.1011 158.259 70.2807 158.018" fill="white"/>
<path d="M69.319 156.089C69.319 156.089 67.5018 155.876 67.608 157.269C67.6361 157.568 67.7542 157.852 67.9468 158.082C68.1394 158.313 68.3975 158.48 68.6869 158.561C68.9764 158.642 69.2836 158.634 69.5682 158.537C69.8527 158.44 70.1011 158.259 70.2807 158.018" stroke="#263238" stroke-linecap="round" stroke-linejoin="round"/>
<path d="M66.788 162.791L62.8527 163.9C62.8527 163.9 62.5459 164.667 62.0857 165.67C61.4662 167.033 59.7611 169.8 59.7611 169.8L51.8846 172.048L49.3535 180.208L48.793 183.582L53.2888 181.329L53.572 173.458L60.652 172.367L63.6905 164.697L66.788 162.791Z" fill="#263238" stroke="#263238" stroke-linecap="round" stroke-linejoin="round"/>
<path d="M73.0601 161.64C73.0601 161.64 69.9626 160.254 67.6144 160.572C65.2662 160.891 65.4786 162.071 65.4786 162.071L65.5848 163.67C65.5848 163.67 69.5201 162.496 73.0601 161.64Z" fill="black" stroke="#263238" stroke-linecap="round" stroke-linejoin="round"/>
<path d="M62.4805 169.44L64.693 179.671C64.7098 179.793 64.7557 179.91 64.8268 180.012C64.8979 180.113 64.9922 180.196 65.1018 180.254C65.2114 180.312 65.3332 180.342 65.4571 180.344C65.5809 180.345 65.7033 180.316 65.814 180.261L70.8113 177.765L62.4805 169.44Z" fill="black" stroke="#263238" stroke-linecap="round" stroke-linejoin="round"/>
<path d="M68.0393 174.886L66.8652 177.234" stroke="#263238" stroke-linecap="round" stroke-linejoin="round"/>
<path d="M78.3936 185.246L84.8422 195.913L83.9867 210.339L87.0842 210.233L90.1817 193.028L85.6564 180.975L78.3936 185.246Z" fill="#263238" stroke="#263238" stroke-linecap="round" stroke-linejoin="round"/>
<path d="M65.578 163.67C65.578 163.67 62.4805 169.01 62.4805 169.44C62.4805 169.871 74.5519 181.506 74.5519 181.506L83.7382 175.417L77.968 165.387L86.2752 157.233L86.9124 146.23L85.4197 146.123L82.747 154.136L73.897 161.109L65.578 163.67Z" fill="black" stroke="#263238" stroke-linecap="round" stroke-linejoin="round"/>
<path d="M85.4199 146.123L85.5261 143.669L88.1929 141.639L88.4112 142.17V143.775L88.5174 145.055L86.9126 146.229L85.4199 146.123Z" fill="white" stroke="#263238" stroke-linecap="round" stroke-linejoin="round"/>
<path d="M74.5518 181.506C74.5518 181.506 76.5814 184.922 78.0918 185.99C79.6022 187.058 84.2691 183.748 85.4491 182.78C86.6291 181.812 91.1131 176.054 91.1131 176.054L95.2785 193.801L97.845 192.733C97.845 192.733 96.3405 169.133 95.5971 168.473C94.8537 167.812 83.3133 175.305 83.3133 175.305L74.5518 181.506Z" fill="#263238" stroke="#263238" stroke-linecap="round" stroke-linejoin="round"/>
<path d="M97.8399 192.739H101.468C102.111 192.739 103.71 191.778 103.828 192.527C103.946 193.276 100.731 195.3 99.4447 195.943C98.2095 196.422 96.9192 196.746 95.6038 196.905L95.2793 193.807L97.8399 192.739Z" fill="white" stroke="#263238" stroke-linecap="round" stroke-linejoin="round"/>
<path d="M87.0841 210.233L88.9013 213.543C88.9013 213.543 91.1432 214.504 91.1432 214.935C91.1432 215.366 87.5148 215.147 87.1903 215.147C86.8658 215.147 83.2432 211.607 83.2432 211.607L83.9866 210.321L87.0841 210.233Z" fill="white" stroke="#263238" stroke-linecap="round" stroke-linejoin="round"/>
<path d="M88.1934 141.639L123.056 93.8375" stroke="#263238" stroke-miterlimit="10"/>
<path d="M1.08008 255.468H280.74" stroke="#263238" stroke-linecap="round" stroke-linejoin="round"/>
</svg>
